<svg width="1728" height="109" viewBox="0 0 1728 109" fill="none" xmlns="http://www.w3.org/2000/svg">
<path d="M136.625 72.4024C128.675 72.4055 120.807 70.6496 113.497 67.2407C106.186 63.8318 99.584 58.8408 94.0898 52.569C94.6537 49.3711 95.4367 46.2239 96.4322 43.154C103.014 52.1244 111.956 58.6785 122.053 61.9347C132.151 65.1909 142.92 64.9929 152.911 61.3671C162.902 57.7413 171.636 50.8618 177.938 41.6544C184.239 32.4471 187.806 21.3537 188.157 9.86719C190.655 11.5675 193.033 13.4685 195.272 15.5544C193.554 31.2179 186.638 45.6516 175.831 56.1265C165.025 66.6014 151.077 72.3916 136.625 72.4024Z" fill="#525282"/>
<path d="M136.624 56.0859C129.354 56.0846 122.198 54.1203 115.793 50.3679C109.387 46.6155 103.932 41.1917 99.9121 34.5797C101.203 31.8823 102.666 29.2872 104.29 26.8136C108.134 34.6722 114.273 40.9035 121.732 44.5172C129.191 48.131 137.543 48.92 145.46 46.7588C153.378 44.5975 160.406 39.6101 165.429 32.5891C170.452 25.568 173.181 16.9159 173.183 8.0077C173.177 6.16927 173.06 4.33327 172.832 2.51172C175.483 3.34106 178.079 4.36281 180.604 5.57029C180.604 6.38275 180.604 7.17927 180.604 7.95987C180.587 20.6972 175.951 32.9093 167.71 41.9271C159.469 50.945 148.293 56.0354 136.624 56.0859Z" fill="#525282"/>
<path d="M136.625 39.7384C130.827 39.7328 125.162 37.8406 120.354 34.3036C115.546 30.7665 111.814 25.7452 109.633 19.8811C111.532 17.7398 113.558 15.7364 115.697 13.8834C117.383 19.8787 121.183 24.8971 126.259 27.8346C131.336 30.7721 137.273 31.3881 142.765 29.547C148.258 27.706 152.855 23.5586 155.547 18.0175C158.238 12.4763 158.802 5.99531 157.115 0C159.782 0.0211392 162.444 0.236581 165.084 0.645085C166.101 5.32334 166.133 10.1928 165.175 14.8861C164.217 19.5794 162.296 23.974 159.555 27.7385C156.815 31.503 153.327 34.5392 149.355 36.6179C145.383 38.6966 141.03 39.7636 136.625 39.7384Z" fill="#525282"/>
<path d="M209.874 109.012C198.177 109.003 186.746 105.207 177.027 98.1033C167.308 90.9996 159.738 80.908 155.276 69.1061C157.644 68.2524 159.955 67.2224 162.194 66.0234C166.101 76.3198 172.714 85.122 181.2 91.3186C189.686 97.5151 199.664 100.828 209.874 100.84C211.96 100.841 214.043 100.697 216.113 100.409V108.653C214.04 108.893 211.958 109.013 209.874 109.012Z" fill="#525282"/>
<path d="M209.873 92.6634C200.991 92.6566 192.318 89.7245 184.987 84.2505C177.656 78.7764 172.008 71.0151 168.783 61.9814C170.967 60.4138 173.058 58.6978 175.044 56.8438C177.743 66.0329 183.403 73.8414 190.976 78.8203C198.549 83.7992 207.519 85.6104 216.222 83.9176V92.1855C214.119 92.5063 211.997 92.6661 209.873 92.6634Z" fill="#525282"/>
<path d="M189.952 11.0868C189.558 10.8 189.185 10.4894 188.77 10.2266C189.176 10.4917 189.571 10.7788 189.952 11.0868Z" fill="#525282"/>
<path d="M188.157 9.86719L188.661 10.2496L188.157 9.89111V9.86719Z" fill="#525282"/>
<path d="M209.873 76.3436C203.045 76.3301 196.436 73.7051 191.197 68.9247C185.958 64.1444 182.419 57.511 181.195 50.1779C184.465 46.0547 187.252 41.5034 189.492 36.6289C188.322 40.1925 187.955 44.0112 188.422 47.7622C188.889 51.5132 190.176 55.0865 192.175 58.18C194.174 61.2735 196.826 63.7963 199.906 65.5354C202.986 67.2744 206.405 68.1785 209.873 68.1713C211.986 68.1672 214.088 67.8292 216.112 67.1677V75.6028C214.063 76.0917 211.971 76.34 209.873 76.3436Z" fill="#525282"/>
<path d="M189.492 36.6302C189.921 35.2569 190.479 33.9358 191.156 32.6875C190.631 34.0257 190.083 35.3398 189.492 36.6302Z" fill="#525282"/>
<path d="M42.5569 115.031C34.6042 115.032 26.7337 113.275 19.4197 109.867C12.1058 106.458 5.49981 101.468 0 95.1977C0.560644 91.9966 1.35118 88.8486 2.36427 85.7828C8.94642 94.7531 17.8879 101.307 27.9854 104.564C38.0829 107.82 48.8519 107.622 58.8431 103.996C68.8344 100.37 77.5684 93.4907 83.8699 84.2833C90.1713 75.076 93.7378 63.9826 94.0894 52.4961C96.587 54.1964 98.9652 56.0974 101.204 58.1833C99.4859 73.8468 92.5698 88.2804 81.7634 98.7552C70.957 109.23 57.0092 115.02 42.5569 115.031Z" fill="#525282"/>
<path d="M42.5571 98.7149C35.2848 98.7113 28.1261 96.746 21.7175 92.994C15.3089 89.2421 9.84894 83.8196 5.82324 77.2088C7.12231 74.5164 8.58501 71.9219 10.2015 69.4427C14.0515 77.2941 20.1929 83.5175 27.6517 87.1259C35.1104 90.7342 43.4593 91.5208 51.3741 89.361C59.289 87.2011 66.3166 82.2184 71.3422 75.2032C76.3678 68.188 79.1036 59.5421 79.1158 50.6368C79.1103 48.7983 78.9933 46.9622 78.7655 45.1406C81.4144 45.9738 84.0104 46.9956 86.5369 48.1993C86.5369 49.0118 86.5369 49.8083 86.5369 50.5889C86.5197 63.3263 81.884 75.5383 73.6431 84.5562C65.4021 93.574 54.226 98.6644 42.5571 98.7149Z" fill="#525282"/>
<path d="M42.5566 82.3675C36.7586 82.3618 31.0939 80.4697 26.2859 76.9326C21.478 73.3956 17.7452 68.3742 15.5645 62.5102C17.4583 60.3625 19.4843 58.3586 21.6284 56.5123C22.4635 59.4762 23.8253 62.2315 25.6359 64.6209C27.4466 67.0103 29.6707 68.987 32.1812 70.4382C34.6917 71.8893 37.4395 72.7866 40.2677 73.0786C43.0959 73.3706 45.949 73.0518 48.6643 72.1402C51.3796 71.2286 53.9038 69.7421 56.0928 67.7656C58.2817 65.7892 60.0927 63.3615 61.4221 60.6211C62.7516 57.8808 63.5735 54.8814 63.8411 51.7943C64.1086 48.7072 63.8164 45.5928 62.9813 42.6289C65.6477 42.65 68.3097 42.8656 70.9498 43.2741C71.9652 47.9426 71.9983 52.8015 71.0466 57.4858C70.0949 62.1702 68.1831 66.5583 65.4549 70.3205C62.7267 74.0827 59.2529 77.1212 55.2945 79.2077C51.3362 81.2942 46.9961 82.3745 42.6004 82.3675H42.5566Z" fill="#525282"/>
<path d="M115.805 151.637C104.109 151.628 92.6774 147.832 82.9585 140.728C73.2396 133.624 65.67 123.533 61.208 111.731C63.5758 110.877 65.8871 109.847 68.1257 108.648C72.0346 118.943 78.6489 127.743 87.1344 133.939C95.6198 140.136 105.596 143.45 115.805 143.465C117.884 143.454 119.96 143.311 122.022 143.034V151.278C119.899 151.517 117.907 151.637 115.805 151.637Z" fill="#525282"/>
<path d="M115.806 135.296C106.924 135.29 98.2502 132.357 90.9192 126.883C83.5881 121.409 77.9409 113.648 74.7158 104.614C76.8994 103.047 78.9905 101.331 80.9768 99.4766C83.6978 108.634 89.3531 116.414 96.905 121.387C104.457 126.36 113.398 128.193 122.089 126.55V134.795C120.008 135.122 117.908 135.29 115.806 135.296Z" fill="#525282"/>
<path d="M95.8189 53.6922C95.4248 53.4055 95.0527 53.0949 94.6367 52.832C95.0089 53.1427 95.4248 53.4055 95.8189 53.6922Z" fill="#525282"/>
<path d="M94.0898 52.4961L94.5933 52.8784L94.0898 52.52V52.4961Z" fill="#525282"/>
<path d="M115.806 118.974C108.961 118.956 102.341 116.314 97.0991 111.51C91.8576 106.705 88.3285 100.044 87.1279 92.6891C90.4024 88.5786 93.1899 84.0345 95.4248 79.1641C94.577 81.698 94.1472 84.376 94.1551 87.0737C94.1348 90.7747 94.9119 94.4291 96.4238 97.7419C97.9356 101.055 100.14 103.933 102.858 106.145C105.577 108.356 108.734 109.839 112.074 110.474C115.415 111.109 118.845 110.877 122.089 109.798V118.234C120.025 118.729 117.918 118.977 115.806 118.974Z" fill="#525282"/>
<path d="M95.4248 79.2593C95.8536 77.886 96.4111 76.5647 97.0886 75.3164C96.5632 76.6546 96.0159 77.9689 95.4248 79.2593Z" fill="#525282"/>
<path d="M295.381 72.4024C303.334 72.4046 311.205 70.6482 318.519 67.2395C325.833 63.8308 332.439 58.8404 337.938 52.569C337.374 49.3711 336.591 46.2239 335.596 43.154C329.016 52.1334 320.073 58.6959 309.971 61.9576C299.87 65.2194 289.096 65.0238 279.099 61.397C269.103 57.7702 260.365 50.8866 254.062 41.6733C247.76 32.4599 244.195 21.3595 243.849 9.86719C241.358 11.5679 238.987 13.4689 236.756 15.5544C238.474 31.2138 245.387 45.6443 256.188 56.1186C266.99 66.5929 280.933 72.3857 295.381 72.4024Z" fill="#525282"/>
<path d="M295.381 56.0859C302.654 56.0886 309.815 54.1261 316.225 50.3736C322.634 46.621 328.093 41.195 332.115 34.5797C330.824 31.8823 329.361 29.2872 327.736 26.8136C323.893 34.6722 317.754 40.9035 310.295 44.5172C302.836 48.131 294.484 48.92 286.566 46.7588C278.649 44.5975 271.621 39.6101 266.598 32.589C261.575 25.568 258.846 16.9159 258.844 8.0077C258.849 6.16927 258.966 4.33327 259.194 2.51172C256.544 3.34106 253.948 4.36281 251.423 5.57029C251.423 6.38275 251.423 7.17927 251.423 7.95987C251.44 20.6931 256.073 32.9015 264.309 41.9186C272.545 50.9358 283.716 56.0291 295.381 56.0859Z" fill="#525282"/>
<path d="M295.381 39.7384C301.179 39.7328 306.844 37.8406 311.652 34.3036C316.459 30.7665 320.192 25.7452 322.373 19.8811C320.479 17.7341 318.453 15.7303 316.309 13.8834C315.589 16.9864 314.298 19.8971 312.515 22.4385C310.732 24.98 308.494 27.0991 305.937 28.6671C303.381 30.2351 300.559 31.2193 297.643 31.5597C294.727 31.9001 291.778 31.5896 288.975 30.6472C286.173 29.7047 283.575 28.1501 281.34 26.0776C279.105 24.0051 277.279 21.4583 275.974 18.5917C274.669 15.7251 273.912 12.5987 273.748 9.40267C273.584 6.20658 274.018 3.00754 275.022 0C272.348 0.0211412 269.679 0.236581 267.031 0.645085C266.031 5.32169 266.013 10.1846 266.978 14.8701C267.942 19.5555 269.865 23.9422 272.602 27.7021C275.339 31.4619 278.82 34.4975 282.783 36.5819C286.747 38.6662 291.091 39.7453 295.49 39.7384H295.381Z" fill="#525282"/>
<path d="M222.154 109.012C233.851 109.003 245.282 105.207 255.001 98.1033C264.72 90.9996 272.289 80.908 276.751 69.1061C274.376 68.2528 272.058 67.2228 269.812 66.0234C265.912 76.3198 259.302 85.1228 250.82 91.3199C242.337 97.5169 232.361 100.83 222.154 100.84C220.068 100.841 217.984 100.697 215.915 100.409V108.653C217.987 108.893 220.07 109.013 222.154 109.012Z" fill="#525282"/>
<path d="M222.154 92.6634C231.036 92.6533 239.708 89.7199 247.038 84.2462C254.369 78.7726 260.017 71.0132 263.244 61.9814C261.057 60.4197 258.965 58.7035 256.983 56.8438C254.287 66.009 248.643 73.7995 241.094 78.7761C233.545 83.7526 224.602 85.579 215.915 83.9176V92.1855C217.982 92.5025 220.067 92.6622 222.154 92.6634Z" fill="#525282"/>
<path d="M242.119 11.0868L243.301 10.2266C242.951 10.5372 242.491 10.7761 242.119 11.0868Z" fill="#525282"/>
<path d="M243.848 9.86719L243.345 10.2496L243.848 9.89111V9.86719Z" fill="#525282"/>
<path d="M222.154 76.3436C228.98 76.3291 235.585 73.7032 240.821 68.9225C246.057 64.1419 249.591 57.5091 250.81 50.1779C247.547 46.0541 244.767 41.5027 242.535 36.6289C243.372 39.1659 243.802 41.8418 243.805 44.5384C243.805 48.2242 243.015 51.8589 241.498 55.152C239.981 58.4451 237.78 61.3053 235.07 63.5041C232.36 65.703 229.217 67.1795 225.891 67.8156C222.565 68.4517 219.148 68.2298 215.915 67.1677V75.6028C217.964 76.0929 220.056 76.3413 222.154 76.3436Z" fill="#525282"/>
<path d="M242.491 36.6302C242.044 35.2651 241.487 33.9458 240.827 32.6875C241.374 34.0257 241.944 35.3398 242.491 36.6302Z" fill="#525282"/>
<path d="M389.448 115.031C397.401 115.033 405.272 113.277 412.586 109.868C419.901 106.46 426.506 101.469 432.005 95.1977C431.442 91.9999 430.659 88.8527 429.663 85.7828C423.077 94.7491 414.134 101.299 404.037 104.553C393.939 107.807 383.171 107.608 373.18 103.983C363.189 100.358 354.454 93.4814 348.15 84.2769C341.846 75.0725 338.274 63.9818 337.916 52.4961C335.426 54.1968 333.055 56.0978 330.823 58.1833C332.541 73.8427 339.454 88.273 350.256 98.7474C361.058 109.222 375 115.014 389.448 115.031Z" fill="#525282"/>
<path d="M389.448 98.7149C396.722 98.7176 403.882 96.755 410.292 93.0025C416.702 89.25 422.161 83.8241 426.182 77.2088C424.891 74.5114 423.428 71.9163 421.804 69.4427C417.961 77.3013 411.822 83.5325 404.362 87.1463C396.903 90.76 388.551 91.5489 380.634 89.3877C372.717 87.2265 365.688 82.2392 360.665 75.2181C355.642 68.197 352.913 59.545 352.911 50.6368C352.917 48.7983 353.034 46.9622 353.262 45.1406C350.612 45.97 348.015 46.9919 345.49 48.1993C345.49 49.0118 345.49 49.8083 345.49 50.5889C345.507 63.3221 350.14 75.5305 358.376 84.5477C366.613 93.5649 377.783 98.6581 389.448 98.7149Z" fill="#525282"/>
<path d="M389.448 82.3675C395.246 82.3618 400.911 80.4697 405.719 76.9326C410.527 73.3956 414.26 68.3742 416.44 62.5102C414.552 60.3568 412.525 58.3524 410.376 56.5123C409.656 59.6153 408.365 62.5261 406.582 65.0676C404.799 67.6091 402.562 69.7282 400.005 71.2962C397.448 72.8642 394.626 73.8483 391.71 74.1886C388.794 74.529 385.845 74.2186 383.043 73.2762C380.24 72.3338 377.642 70.7791 375.407 68.7066C373.172 66.6342 371.347 64.0872 370.042 61.2206C368.736 58.354 367.979 55.2277 367.815 52.0316C367.652 48.8355 368.085 45.6364 369.089 42.6289C366.416 42.65 363.746 42.8656 361.099 43.2741C360.101 47.9409 360.08 52.7933 361.039 57.4699C361.998 62.1465 363.911 66.5268 366.636 70.2843C369.361 74.0418 372.827 77.0797 376.777 79.1718C380.727 81.2639 385.058 82.3563 389.448 82.3675Z" fill="#525282"/>
<path d="M316.221 151.637C327.918 151.628 339.349 147.832 349.068 140.728C358.787 133.624 366.357 123.533 370.819 111.731C368.444 110.878 366.125 109.848 363.879 108.648C359.976 118.943 353.367 127.744 344.884 133.941C336.402 140.137 326.428 143.452 316.221 143.465C314.136 143.454 312.053 143.31 309.982 143.034V151.278C312.04 151.517 314.12 151.637 316.221 151.637Z" fill="#525282"/>
<path d="M316.221 135.296C325.103 135.286 333.775 132.353 341.106 126.879C348.436 121.406 354.084 113.646 357.312 104.614C355.124 103.053 353.033 101.336 351.051 99.4766C348.323 108.619 342.673 116.385 335.132 121.356C327.592 126.327 318.665 128.171 309.982 126.55V134.795C312.049 135.12 314.134 135.287 316.221 135.296Z" fill="#525282"/>
<path d="M336.187 53.6922C336.581 53.4055 336.953 53.0949 337.347 52.832L336.187 53.6922Z" fill="#525282"/>
<path d="M337.916 52.4961L337.412 52.8784L337.938 52.52L337.916 52.4961Z" fill="#525282"/>
<path d="M316.221 118.974C323.066 118.956 329.687 116.314 334.928 111.51C340.17 106.705 343.699 100.044 344.899 92.6891C341.618 88.5845 338.83 84.0394 336.602 79.1641C337.44 81.7011 337.869 84.3771 337.872 87.0737C337.872 90.7595 337.082 94.3941 335.565 97.6872C334.049 100.98 331.847 103.84 329.138 106.039C326.428 108.238 323.284 109.715 319.958 110.351C316.632 110.987 313.216 110.765 309.982 109.703V118.138C312.029 118.66 314.12 118.941 316.221 118.974Z" fill="#525282"/>
<path d="M336.625 79.2593C336.187 77.8901 335.63 76.5697 334.961 75.3164C335.443 76.6546 336.012 77.9689 336.625 79.2593Z" fill="#525282"/>
<path d="M568.674 72.4024C560.721 72.4046 552.85 70.6482 545.536 67.2395C538.222 63.8308 531.616 58.8404 526.117 52.569C526.678 49.3678 527.468 46.2198 528.481 43.154C535.064 52.1244 544.005 58.6785 554.103 61.9347C564.2 65.1909 574.969 64.9929 584.96 61.3671C594.952 57.7413 603.686 50.8618 609.987 41.6544C616.289 32.4471 619.855 21.3537 620.207 9.86719C622.697 11.5679 625.068 13.4689 627.299 15.5544C625.582 31.2138 618.669 45.6443 607.867 56.1186C597.065 66.5929 583.123 72.3857 568.674 72.4024Z" fill="#525282"/>
<path d="M568.673 56.0859C561.401 56.0843 554.241 54.1201 547.832 50.3679C541.423 46.6157 535.964 41.1921 531.939 34.5797C533.231 31.8823 534.694 29.2872 536.318 26.8136C540.168 34.6651 546.309 40.8886 553.768 44.4969C561.227 48.1053 569.576 48.8919 577.49 46.7321C585.405 44.5722 592.433 39.5895 597.458 32.5743C602.484 25.5591 605.22 16.9131 605.232 8.0077C605.23 6.16827 605.106 4.33144 604.86 2.51172C607.517 3.34099 610.121 4.36274 612.653 5.57029C612.653 6.38275 612.653 7.1952 612.653 7.95987C612.642 20.6991 608.008 32.9149 599.766 41.9341C591.523 50.9533 580.344 56.0416 568.673 56.0859Z" fill="#525282"/>
<path d="M568.674 39.7384C562.876 39.7328 557.211 37.8406 552.403 34.3036C547.595 30.7665 543.862 25.7452 541.682 19.8811C543.581 17.7398 545.607 15.7364 547.746 13.8834C549.056 19.4573 552.186 24.3169 556.547 27.5491C560.909 30.7812 566.202 32.1632 571.431 31.4353C576.661 30.7075 581.467 27.92 584.946 23.5966C588.425 19.2732 590.338 13.7116 590.324 7.95717C590.325 5.24256 589.888 2.54915 589.033 0C591.706 0.0202884 594.376 0.235732 597.023 0.645085C598.039 5.31351 598.072 10.1724 597.12 14.8568C596.168 19.5412 594.257 23.9294 591.528 27.6916C588.8 31.4537 585.326 34.4921 581.368 36.5786C577.41 38.6652 573.07 39.7455 568.674 39.7384Z" fill="#525282"/>
<path d="M641.857 109.012C630.164 108.999 618.737 105.2 609.023 98.0965C599.308 90.9932 591.742 80.9042 587.281 69.1061C589.648 68.2482 591.959 67.2182 594.199 66.0234C598.102 76.3179 604.711 85.1193 613.194 91.3159C621.676 97.5126 631.65 100.827 641.857 100.84C643.943 100.842 646.027 100.698 648.096 100.409V108.653C646.023 108.895 643.941 109.014 641.857 109.012Z" fill="#525282"/>
<path d="M641.858 92.6634C632.976 92.6533 624.304 89.7199 616.974 84.2462C609.643 78.7726 603.995 71.0132 600.768 61.9814C602.959 60.4256 605.05 58.709 607.028 56.8438C609.725 66.009 615.369 73.7995 622.918 78.7761C630.467 83.7526 639.41 85.579 648.097 83.9176V92.1855C646.03 92.5025 643.945 92.6622 641.858 92.6634Z" fill="#525282"/>
<path d="M621.892 11.0868L620.71 10.2266C621.117 10.4917 621.511 10.7788 621.892 11.0868Z" fill="#525282"/>
<path d="M620.162 9.86719L620.666 10.2496L620.162 9.89111V9.86719Z" fill="#525282"/>
<path d="M641.857 76.3436C635.031 76.3291 628.426 73.7032 623.19 68.9225C617.955 64.1419 614.42 57.5091 613.201 50.1779C616.471 46.0601 619.252 41.5076 621.476 36.6289C620.639 39.1659 620.209 41.8418 620.206 44.5384C620.207 48.2242 620.997 51.8589 622.513 55.152C624.03 58.4451 626.231 61.3053 628.941 63.5041C631.651 65.703 634.795 67.1795 638.121 67.8156C641.446 68.4517 644.863 68.2298 648.096 67.1677V75.6028C646.047 76.0929 643.955 76.3413 641.857 76.3436Z" fill="#525282"/>
<path d="M621.477 36.6302C621.924 35.2651 622.481 33.9458 623.14 32.6875C622.637 34.0257 622.068 35.3398 621.477 36.6302Z" fill="#525282"/>
<path d="M474.54 115.031C466.587 115.033 458.717 113.277 451.402 109.868C444.088 106.46 437.482 101.469 431.983 95.1977C432.547 91.9999 433.33 88.8527 434.326 85.7828C440.912 94.7491 449.855 101.299 459.952 104.553C470.05 107.807 480.818 107.608 490.809 103.983C500.8 100.358 509.535 93.4814 515.839 84.2769C522.143 75.0725 525.715 63.9818 526.073 52.4961C528.563 54.1968 530.934 56.0978 533.166 58.1833C531.448 73.8427 524.535 88.273 513.733 98.7474C502.931 109.222 488.989 115.014 474.54 115.031Z" fill="#525282"/>
<path d="M474.54 98.7149C467.267 98.7176 460.106 96.755 453.697 93.0025C447.287 89.25 441.828 83.8241 437.807 77.2088C439.098 74.5114 440.561 71.9163 442.185 69.4427C446.028 77.3013 452.167 83.5325 459.626 87.1463C467.086 90.76 475.438 91.5489 483.355 89.3877C491.272 87.2265 498.3 82.2392 503.323 75.2181C508.346 68.197 511.075 59.545 511.077 50.6368C511.083 48.7979 510.966 46.9609 510.727 45.1406C513.383 45.9739 515.986 46.9957 518.52 48.1993C518.52 49.0118 518.52 49.8243 518.52 50.5889C518.509 63.3282 513.875 75.5438 505.633 84.563C497.391 93.5822 486.211 98.6707 474.54 98.7149Z" fill="#525282"/>
<path d="M474.541 82.3675C468.743 82.3618 463.078 80.4697 458.27 76.9326C453.462 73.3956 449.73 68.3742 447.549 62.5102C449.438 60.3568 451.464 58.3524 453.613 56.5123C454.923 62.0862 458.053 66.946 462.415 70.1781C466.776 73.4102 472.069 74.7922 477.299 74.0644C482.528 73.3365 487.334 70.549 490.813 66.2256C494.292 61.9022 496.205 56.3406 496.192 50.5862C496.192 47.8716 495.755 45.1781 494.9 42.6289C497.574 42.6492 500.243 42.8648 502.89 43.2741C503.908 47.9524 503.939 52.8219 502.981 57.5152C502.024 62.2085 500.102 66.603 497.362 70.3676C494.621 74.1321 491.133 77.1682 487.161 79.2469C483.189 81.3256 478.836 82.3926 474.432 82.3675H474.541Z" fill="#525282"/>
<path d="M547.789 151.637C536.096 151.623 524.67 147.825 514.955 140.722C505.241 133.618 497.674 123.529 493.214 111.731C495.58 110.873 497.891 109.843 500.132 108.648C504.034 118.943 510.644 127.744 519.126 133.941C527.608 140.137 537.583 143.452 547.789 143.465C549.875 143.455 551.958 143.312 554.028 143.034V151.278C551.97 151.517 549.891 151.637 547.789 151.637Z" fill="#525282"/>
<path d="M547.789 135.296C538.908 135.286 530.236 132.353 522.905 126.879C515.575 121.406 509.927 113.646 506.699 104.614C508.887 103.053 510.978 101.336 512.96 99.4766C515.688 108.619 521.338 116.385 528.879 121.356C536.419 126.327 545.346 128.171 554.028 126.55V134.795C551.962 135.12 549.877 135.287 547.789 135.296Z" fill="#525282"/>
<path d="M527.825 53.6922L526.643 52.832C527.08 53.1427 527.431 53.4055 527.825 53.6922Z" fill="#525282"/>
<path d="M526.095 52.4961L526.598 52.8784L526.095 52.52V52.4961Z" fill="#525282"/>
<path d="M547.79 118.974C540.947 118.96 534.327 116.318 529.088 111.513C523.849 106.708 520.326 100.044 519.134 92.6891C522.408 88.5838 525.189 84.0386 527.409 79.1641C526.571 81.7011 526.142 84.3771 526.139 87.0737C526.139 90.7595 526.929 94.3941 528.446 97.6872C529.962 100.98 532.164 103.84 534.874 106.039C537.584 108.238 540.727 109.715 544.053 110.351C547.379 110.987 550.795 110.765 554.029 109.703V118.138C551.983 118.66 549.891 118.941 547.79 118.974Z" fill="#525282"/>
<path d="M527.408 79.2593C527.855 77.8941 528.412 76.5747 529.072 75.3164C528.568 76.6546 527.999 77.9689 527.408 79.2593Z" fill="#525282"/>
<path d="M727.386 72.4024C735.339 72.4046 743.21 70.6482 750.524 67.2395C757.838 63.8308 764.444 58.8404 769.943 52.569C769.379 49.3711 768.596 46.2239 767.601 43.154C761.012 52.0973 752.075 58.6268 741.989 61.8663C731.903 65.1059 721.151 64.9004 711.174 61.2775C701.198 57.6547 692.476 50.7878 686.178 41.5983C679.881 32.4088 676.308 21.3364 675.941 9.86719C673.451 11.5679 671.08 13.4689 668.849 15.5544C670.565 31.1975 677.465 45.6148 688.248 56.087C699.032 66.5591 712.953 72.3624 727.386 72.4024Z" fill="#525282"/>
<path d="M727.387 56.0859C734.66 56.0843 741.819 54.1201 748.228 50.3679C754.637 46.6157 760.097 41.1921 764.121 34.5797C762.83 31.8823 761.367 29.2872 759.743 26.8136C755.893 34.6651 749.751 40.8886 742.292 44.4969C734.834 48.1053 726.485 48.8919 718.57 46.7321C710.655 44.5722 703.628 39.5895 698.602 32.5743C693.576 25.5591 690.841 16.9131 690.828 8.0077C690.83 6.16827 690.954 4.33144 691.201 2.51172C688.543 3.34099 685.94 4.36274 683.407 5.57029C683.407 6.38275 683.407 7.1952 683.407 7.95987C683.419 20.6991 688.052 32.9149 696.295 41.9341C704.537 50.9533 715.716 56.0416 727.387 56.0859Z" fill="#525282"/>
<path d="M727.386 39.7384C733.184 39.7328 738.849 37.8406 743.657 34.3036C748.465 30.7665 752.198 25.7452 754.378 19.8811C752.479 17.7398 750.453 15.7364 748.315 13.8834C747.004 19.4573 743.874 24.3169 739.513 27.5491C735.151 30.7812 729.858 32.1632 724.629 31.4353C719.399 30.7075 714.593 27.92 711.114 23.5966C707.635 19.2732 705.723 13.7116 705.736 7.95717C705.735 5.24256 706.172 2.54915 707.027 0C704.354 0.0202884 701.684 0.235732 699.037 0.645085C698.021 5.31351 697.988 10.1724 698.94 14.8568C699.892 19.5412 701.804 23.9294 704.532 27.6916C707.26 31.4537 710.734 34.4921 714.692 36.5786C718.651 38.6652 722.991 39.7455 727.386 39.7384Z" fill="#525282"/>
<path d="M654.16 109.012C665.86 109.008 677.296 105.214 687.02 98.1098C696.743 91.0058 704.316 80.9118 708.779 69.1061C706.413 68.2482 704.102 67.2182 701.862 66.0234C697.959 76.3179 691.349 85.1193 682.867 91.3159C674.385 97.5126 664.411 100.827 654.204 100.84C652.118 100.842 650.034 100.698 647.965 100.409V108.653C650.023 108.893 652.091 109.013 654.16 109.012Z" fill="#525282"/>
<path d="M654.16 92.6634C663.041 92.6533 671.714 89.7199 679.044 84.2462C686.375 78.7726 692.023 71.0132 695.25 61.9814C693.059 60.4256 690.967 58.709 688.989 56.8438C686.293 66.009 680.649 73.7995 673.1 78.7761C665.551 83.7526 656.607 85.579 647.921 83.9176V92.1855C649.988 92.5025 652.073 92.6622 654.16 92.6634Z" fill="#525282"/>
<path d="M674.125 11.0868L675.307 10.2266C674.9 10.4917 674.506 10.7788 674.125 11.0868Z" fill="#525282"/>
<path d="M675.942 9.86719L675.438 10.2496L675.942 9.89111V9.86719Z" fill="#525282"/>
<path d="M654.16 76.3436C660.986 76.3291 667.591 73.7032 672.827 68.9225C678.062 64.1419 681.597 57.5091 682.816 50.1779C679.546 46.0601 676.765 41.5076 674.541 36.6289C675.378 39.1659 675.808 41.8418 675.811 44.5384C675.81 48.2242 675.02 51.8589 673.504 55.152C671.987 58.4451 669.786 61.3053 667.076 63.5041C664.366 65.703 661.222 67.1795 657.896 67.8156C654.57 68.4517 651.154 68.2298 647.921 67.1677V75.6028C649.97 76.0929 652.062 76.3413 654.16 76.3436Z" fill="#525282"/>
<path d="M674.541 36.6302C674.093 35.2651 673.537 33.9458 672.877 32.6875C673.38 34.0257 673.95 35.3398 674.541 36.6302Z" fill="#525282"/>
<path d="M821.454 115.031C829.407 115.033 837.278 113.277 844.592 109.868C851.906 106.46 858.512 101.469 864.011 95.1977C863.447 91.9999 862.664 88.8527 861.669 85.7828C855.083 94.7491 846.14 101.299 836.042 104.553C825.945 107.807 815.176 107.608 805.185 103.983C795.194 100.358 786.46 93.4814 780.156 84.2769C773.851 75.0725 770.28 63.9818 769.922 52.4961C767.431 54.1968 765.061 56.0978 762.829 58.1833C764.547 73.8427 771.46 88.273 782.262 98.7474C793.063 109.222 807.006 115.014 821.454 115.031Z" fill="#525282"/>
<path d="M821.454 98.7149C828.727 98.7176 835.888 96.755 842.297 93.0025C848.707 89.25 854.166 83.8241 858.187 77.2088C856.896 74.5114 855.433 71.9163 853.809 69.4427C849.966 77.3013 843.827 83.5325 836.368 87.1463C828.908 90.76 820.556 91.5489 812.639 89.3877C804.722 87.2265 797.693 82.2392 792.671 75.2181C787.648 68.197 784.919 59.545 784.917 50.6368C784.911 48.7979 785.028 46.9609 785.267 45.1406C782.611 45.9739 780.008 46.9957 777.474 48.1993C777.474 49.0118 777.474 49.8243 777.474 50.5889C777.485 63.3282 782.119 75.5438 790.361 84.563C798.603 93.5822 809.783 98.6707 821.454 98.7149Z" fill="#525282"/>
<path d="M821.455 82.3675C827.253 82.3618 832.917 80.4697 837.725 76.9326C842.533 73.3956 846.266 68.3742 848.447 62.5102C846.558 60.3568 844.532 58.3524 842.383 56.5123C841.073 62.0862 837.943 66.946 833.581 70.1781C829.22 73.4102 823.927 74.7922 818.697 74.0644C813.468 73.3365 808.662 70.549 805.183 66.2256C801.704 61.9022 799.791 56.3406 799.804 50.5862C799.804 47.8716 800.241 45.1781 801.096 42.6289C798.422 42.6492 795.753 42.8648 793.105 43.2741C792.088 47.9524 792.057 52.8219 793.014 57.5152C793.972 62.2085 795.894 66.603 798.634 70.3676C801.375 74.1321 804.862 77.1682 808.834 79.2469C812.807 81.3256 817.159 82.3926 821.564 82.3675H821.455Z" fill="#525282"/>
<path d="M748.183 151.637C759.902 151.657 771.362 147.874 781.107 140.768C790.852 133.663 798.441 123.555 802.912 111.731C800.546 110.873 798.235 109.843 795.994 108.648C792.082 118.969 785.448 127.789 776.936 133.987C768.424 140.186 758.416 143.485 748.183 143.465C746.098 143.455 744.014 143.312 741.944 143.034V151.278C744.046 151.517 746.126 151.637 748.183 151.637Z" fill="#525282"/>
<path d="M748.183 135.296C757.065 135.286 765.737 132.353 773.068 126.879C780.398 121.406 786.046 113.646 789.274 104.614C787.086 103.053 784.995 101.336 783.013 99.4766C780.285 108.619 774.635 116.385 767.094 121.356C759.554 126.327 750.627 128.171 741.944 126.55V134.795C744.011 135.12 746.096 135.287 748.183 135.296Z" fill="#525282"/>
<path d="M768.192 53.6922L769.374 52.832C769.024 53.1427 768.586 53.4055 768.192 53.6922Z" fill="#525282"/>
<path d="M769.921 52.4961L769.418 52.8784L769.921 52.52V52.4961Z" fill="#525282"/>
<path d="M748.183 118.974C755.026 118.96 761.646 116.318 766.885 111.513C772.124 106.708 775.647 100.044 776.839 92.6891C773.565 88.5838 770.784 84.0386 768.564 79.1641C769.402 81.7011 769.831 84.3771 769.834 87.0737C769.834 90.7595 769.044 94.3941 767.527 97.6872C766.011 100.98 763.809 103.84 761.099 106.039C758.389 108.238 755.246 109.715 751.92 110.351C748.594 110.987 745.178 110.765 741.944 109.703V118.138C743.991 118.66 746.082 118.941 748.183 118.974Z" fill="#525282"/>
<path d="M768.608 79.2593C768.161 77.8941 767.604 76.5747 766.944 75.3164C767.448 76.6546 768.017 77.9689 768.608 79.2593Z" fill="#525282"/>
<path d="M1000.64 72.4024C992.682 72.4046 984.811 70.6482 977.497 67.2395C970.183 63.8308 963.577 58.8404 958.078 52.569C958.642 49.3711 959.425 46.2239 960.421 43.154C967 52.1334 975.943 58.6959 986.045 61.9576C996.146 65.2194 1006.92 65.0238 1016.92 61.397C1026.91 57.7702 1035.65 50.8866 1041.95 41.6733C1048.26 32.4599 1051.82 21.3595 1052.17 9.86719C1054.66 11.5679 1057.03 13.4689 1059.26 15.5544C1057.54 31.2138 1050.63 45.6443 1039.83 56.1186C1029.03 66.5929 1015.08 72.3857 1000.64 72.4024Z" fill="#525282"/>
<path d="M1000.64 56.0829C993.363 56.0856 986.202 54.1232 979.792 50.3706C973.383 46.6181 967.924 41.1921 963.902 34.5768C965.193 31.8794 966.656 29.2843 968.281 26.8107C972.131 34.6604 978.274 40.8811 985.733 44.4852C993.192 48.0894 1001.54 48.8706 1009.45 46.7046C1017.36 44.5386 1024.39 39.5496 1029.41 32.5297C1034.42 25.5097 1037.15 16.8611 1037.15 7.95692C1037.15 6.11848 1037.03 4.28249 1036.8 2.46094C1039.45 3.29027 1042.05 4.31217 1044.57 5.51966C1044.57 6.33211 1044.57 7.12864 1044.57 7.90923C1044.57 20.6466 1039.94 32.8637 1031.71 41.8905C1023.48 50.9173 1012.31 56.0198 1000.64 56.0829Z" fill="#525282"/>
<path d="M1000.64 39.7384C994.841 39.728 989.181 37.8336 984.377 34.2969C979.574 30.7601 975.844 25.7414 973.665 19.8811C975.559 17.7341 977.585 15.7303 979.729 13.8834C980.449 16.9864 981.74 19.8971 983.523 22.4386C985.306 24.98 987.544 27.0991 990.101 28.6671C992.657 30.2351 995.479 31.2194 998.395 31.5597C1001.31 31.9001 1004.26 31.5896 1007.06 30.6472C1009.87 29.7047 1012.46 28.1501 1014.7 26.0776C1016.93 24.0051 1018.76 21.4583 1020.06 18.5917C1021.37 15.7251 1022.13 12.5988 1022.29 9.40267C1022.45 6.20658 1022.02 3.00754 1021.02 0C1023.69 0.0211412 1026.36 0.236581 1029.01 0.645085C1030 5.31188 1030.02 10.1643 1029.07 14.8409C1028.11 19.5175 1026.19 23.8977 1023.47 27.6552C1020.74 31.4128 1017.28 34.4508 1013.33 36.5429C1009.38 38.635 1005.05 39.7273 1000.66 39.7384H1000.64Z" fill="#525282"/>
<path d="M1073.86 109.012C1062.17 109.003 1050.74 105.207 1041.02 98.1033C1031.3 90.9996 1023.73 80.908 1019.27 69.1061C1021.64 68.2528 1023.96 67.2228 1026.21 66.0234C1030.11 76.3198 1036.71 85.1228 1045.2 91.3199C1053.68 97.5169 1063.66 100.83 1073.86 100.84C1075.95 100.841 1078.03 100.697 1080.1 100.409V108.653C1078.03 108.893 1075.95 109.013 1073.86 109.012Z" fill="#525282"/>
<path d="M1073.86 92.6634C1064.98 92.6533 1056.31 89.7199 1048.98 84.2462C1041.65 78.7726 1036 71.0132 1032.77 61.9814C1034.96 60.4197 1037.05 58.7035 1039.03 56.8438C1041.73 66.009 1047.37 73.7995 1054.92 78.7761C1062.47 83.7526 1071.42 85.579 1080.1 83.9176V92.1855C1078.03 92.5025 1075.95 92.6622 1073.86 92.6634Z" fill="#525282"/>
<path d="M1053.9 11.0868L1052.71 10.2266C1053.07 10.5372 1053.5 10.7761 1053.9 11.0868Z" fill="#525282"/>
<path d="M1052.17 9.86719L1052.67 10.2496L1052.17 9.89111V9.86719Z" fill="#525282"/>
<path d="M1073.86 76.3436C1067.04 76.3291 1060.43 73.7032 1055.2 68.9225C1049.96 64.1419 1046.42 57.5091 1045.21 50.1779C1048.47 46.0541 1051.25 41.5027 1053.48 36.6289C1052.64 39.1659 1052.21 41.8418 1052.21 44.5384C1052.21 48.2242 1053 51.8589 1054.52 55.152C1056.03 58.4451 1058.24 61.3053 1060.95 63.5041C1063.66 65.703 1066.8 67.1795 1070.13 67.8156C1073.45 68.4517 1076.87 68.2298 1080.1 67.1677V75.6028C1078.05 76.0929 1075.96 76.3413 1073.86 76.3436Z" fill="#525282"/>
<path d="M1053.48 36.6302C1053.93 35.2651 1054.49 33.9458 1055.15 32.6875C1054.66 34.0257 1054.07 35.3398 1053.48 36.6302Z" fill="#525282"/>
<path d="M906.569 115.031C898.616 115.033 890.745 113.277 883.431 109.868C876.117 106.46 869.511 101.469 864.012 95.1977C864.576 91.9999 865.359 88.8527 866.354 85.7828C872.94 94.7491 881.883 101.299 891.981 104.553C902.078 107.807 912.847 107.608 922.838 103.983C932.829 100.358 941.563 93.4814 947.867 84.2769C954.172 75.0725 957.743 63.9818 958.101 52.4961C960.592 54.1968 962.962 56.0978 965.194 58.1833C963.476 73.8427 956.563 88.273 945.761 98.7474C934.96 109.222 921.017 115.014 906.569 115.031Z" fill="#525282"/>
<path d="M906.569 98.7149C899.295 98.7176 892.135 96.755 885.725 93.0025C879.315 89.25 873.856 83.8241 869.835 77.2088C871.126 74.5114 872.589 71.9163 874.213 69.4427C878.056 77.3013 884.195 83.5325 891.655 87.1463C899.114 90.76 907.466 91.5489 915.383 89.3877C923.3 87.2265 930.329 82.2392 935.352 75.2181C940.375 68.197 943.104 59.545 943.106 50.6368C943.1 48.7983 942.983 46.9622 942.755 45.1406C945.405 45.97 948.002 46.9919 950.527 48.1993C950.527 49.0118 950.527 49.8083 950.527 50.5889C950.51 63.3221 945.877 75.5305 937.641 84.5477C929.404 93.5649 918.234 98.6581 906.569 98.7149Z" fill="#525282"/>
<path d="M906.568 82.3675C900.763 82.3713 895.088 80.4835 890.272 76.9459C885.455 73.4082 881.716 68.3818 879.532 62.5102C881.421 60.3568 883.447 58.3524 885.596 56.5123C886.316 59.6153 887.607 62.5261 889.39 65.0676C891.173 67.6091 893.411 69.7282 895.968 71.2962C898.524 72.8642 901.347 73.8483 904.263 74.1886C907.178 74.529 910.127 74.2186 912.93 73.2762C915.733 72.3338 918.33 70.7791 920.565 68.7066C922.8 66.6342 924.626 64.0872 925.931 61.2206C927.236 58.354 927.994 55.2277 928.157 52.0316C928.321 48.8355 927.888 45.6364 926.883 42.6289C929.557 42.65 932.226 42.8656 934.874 43.2741C935.872 47.9409 935.892 52.7933 934.933 57.4699C933.975 62.1465 932.062 66.5268 929.337 70.2843C926.612 74.0418 923.146 77.0797 919.196 79.1718C915.246 81.2639 910.915 82.3563 906.524 82.3675H906.568Z" fill="#525282"/>
<path d="M979.795 151.637C968.098 151.628 956.667 147.832 946.948 140.728C937.229 133.624 929.659 123.533 925.197 111.731C927.572 110.878 929.891 109.848 932.137 108.648C936.04 118.943 942.649 127.744 951.132 133.941C959.614 140.137 969.588 143.452 979.795 143.465C981.88 143.454 983.963 143.31 986.034 143.034V151.278C983.976 151.517 981.896 151.637 979.795 151.637Z" fill="#525282"/>
<path d="M979.795 135.296C970.902 135.301 962.215 132.374 954.872 126.899C947.528 121.425 941.87 113.657 938.639 104.614C940.826 103.053 942.917 101.336 944.9 99.4766C947.628 108.619 953.278 116.385 960.818 121.356C968.358 126.327 977.285 128.171 985.968 126.55V134.795C983.923 135.116 981.86 135.284 979.795 135.296Z" fill="#525282"/>
<path d="M959.829 53.6922C959.435 53.4055 959.063 53.0949 958.669 52.832L959.829 53.6922Z" fill="#525282"/>
<path d="M958.101 52.4961L958.604 52.8784L958.101 52.52V52.4961Z" fill="#525282"/>
<path d="M979.795 118.974C972.951 118.956 966.33 116.314 961.088 111.51C955.847 106.705 952.318 100.044 951.117 92.6891C954.399 88.5845 957.187 84.0394 959.414 79.1641C958.577 81.7011 958.147 84.3771 958.144 87.0737C958.144 90.7595 958.934 94.3941 960.451 97.6872C961.968 100.98 964.169 103.84 966.879 106.039C969.589 108.238 972.732 109.715 976.058 110.351C979.384 110.987 982.801 110.765 986.034 109.703V118.138C983.988 118.66 981.896 118.941 979.795 118.974Z" fill="#525282"/>
<path d="M959.414 79.2593C959.861 77.8941 960.418 76.5747 961.078 75.3164C960.531 76.6546 960.005 77.9689 959.414 79.2593Z" fill="#525282"/>
<path d="M1159.39 72.4024C1167.34 72.4055 1175.21 70.6496 1182.52 67.2407C1189.83 63.8318 1196.43 58.8408 1201.93 52.569C1201.36 49.3711 1200.58 46.2239 1199.58 43.154C1193 52.1244 1184.06 58.6785 1173.96 61.9347C1163.87 65.1909 1153.1 64.9929 1143.11 61.3671C1133.11 57.7413 1124.38 50.8618 1118.08 41.6544C1111.78 32.4471 1108.21 21.3537 1107.86 9.86719C1105.36 11.5675 1102.98 13.4685 1100.75 15.5544C1102.46 31.2179 1109.38 45.6516 1120.19 56.1265C1130.99 66.6014 1144.94 72.3916 1159.39 72.4024Z" fill="#525282"/>
<path d="M1159.39 56.0859C1166.66 56.0846 1173.82 54.1203 1180.22 50.3679C1186.63 46.6155 1192.08 41.1917 1196.1 34.5797C1194.81 31.8823 1193.35 29.2872 1191.73 26.8136C1187.88 34.6722 1181.74 40.9035 1174.28 44.5172C1166.82 48.131 1158.47 48.92 1150.56 46.7588C1142.64 44.5975 1135.61 39.6101 1130.59 32.5891C1125.56 25.568 1122.84 16.9159 1122.83 8.0077C1122.84 6.16927 1122.96 4.33327 1123.18 2.51172C1120.53 3.34106 1117.94 4.36281 1115.41 5.57029C1115.41 6.38275 1115.41 7.17927 1115.41 7.95987C1115.43 20.6972 1120.06 32.9093 1128.31 41.9271C1136.55 50.945 1147.72 56.0354 1159.39 56.0859Z" fill="#525282"/>
<path d="M1159.39 39.7384C1165.19 39.7328 1170.86 37.8406 1175.66 34.3036C1180.47 30.7665 1184.2 25.7452 1186.38 19.8811C1184.48 17.7398 1182.46 15.7364 1180.32 13.8834C1179.58 16.9575 1178.27 19.8355 1176.48 22.3449C1174.69 24.8543 1172.46 26.9432 1169.91 28.4864C1167.36 30.0296 1164.55 30.9953 1161.66 31.3255C1158.76 31.6557 1155.83 31.3435 1153.05 30.4078C1150.26 29.4721 1147.68 27.932 1145.45 25.8801C1143.23 23.8282 1141.41 21.3068 1140.1 18.467C1138.78 15.6272 1138.01 12.5276 1137.83 9.35424C1137.64 6.18089 1138.04 2.99922 1139.01 0C1136.35 0.0211392 1133.68 0.236581 1131.04 0.645085C1130.03 5.32334 1129.99 10.1928 1130.95 14.8861C1131.91 19.5794 1133.83 23.974 1136.57 27.7385C1139.31 31.503 1142.8 34.5392 1146.77 36.6179C1150.74 38.6966 1155.1 39.7636 1159.5 39.7384H1159.39Z" fill="#525282"/>
<path d="M1086.14 109.012C1097.84 109.003 1109.27 105.207 1118.99 98.1033C1128.71 90.9996 1136.28 80.908 1140.74 69.1061C1138.37 68.2524 1136.06 67.2224 1133.82 66.0234C1129.92 76.3198 1123.3 85.122 1114.82 91.3186C1106.33 97.5151 1096.35 100.828 1086.14 100.84C1084.06 100.841 1081.97 100.697 1079.9 100.409V108.653C1081.98 108.893 1084.06 109.013 1086.14 109.012Z" fill="#525282"/>
<path d="M1086.14 92.6634C1095.03 92.6566 1103.7 89.7245 1111.03 84.2505C1118.36 78.7764 1124.01 71.0151 1127.23 61.9814C1125.05 60.4138 1122.96 58.6978 1120.97 56.8438C1118.28 66.009 1112.63 73.7995 1105.08 78.7761C1097.53 83.7526 1088.59 85.579 1079.9 83.9176V92.1855C1081.97 92.5008 1084.06 92.6605 1086.14 92.6634Z" fill="#525282"/>
<path d="M1106.13 11.0868C1106.52 10.8 1106.9 10.4894 1107.31 10.2266C1106.91 10.4917 1106.51 10.7788 1106.13 11.0868Z" fill="#525282"/>
<path d="M1107.86 9.86719L1107.36 10.2496L1107.86 9.89111V9.86719Z" fill="#525282"/>
<path d="M1086.14 76.3436C1092.97 76.3301 1099.58 73.7051 1104.82 68.9247C1110.06 64.1444 1113.6 57.511 1114.82 50.1779C1111.55 46.0547 1108.76 41.5034 1106.52 36.6289C1107.69 40.1925 1108.06 44.0112 1107.59 47.7622C1107.13 51.5132 1105.84 55.0865 1103.84 58.18C1101.84 61.2735 1099.19 63.7963 1096.11 65.5354C1093.03 67.2744 1089.61 68.1785 1086.14 68.1713C1084.03 68.1672 1081.93 67.8292 1079.9 67.1677V75.6028C1081.95 76.0917 1084.05 76.34 1086.14 76.3436Z" fill="#525282"/>
<path d="M1106.52 36.6302C1106.1 35.2569 1105.54 33.9358 1104.86 32.6875C1105.39 34.0257 1105.93 35.3398 1106.52 36.6302Z" fill="#525282"/>
<path d="M1253.46 115.031C1261.41 115.032 1269.28 113.275 1276.6 109.867C1283.91 106.458 1290.52 101.468 1296.02 95.1977C1295.46 91.9966 1294.67 88.8486 1293.65 85.7828C1287.07 94.7531 1278.13 101.307 1268.03 104.564C1257.93 107.82 1247.16 107.622 1237.17 103.996C1227.18 100.37 1218.45 93.4907 1212.15 84.2833C1205.85 75.076 1202.28 63.9826 1201.93 52.4961C1199.43 54.1964 1197.05 56.0974 1194.81 58.1833C1196.53 73.8468 1203.45 88.2804 1214.25 98.7552C1225.06 109.23 1239.01 115.02 1253.46 115.031Z" fill="#525282"/>
<path d="M1253.46 98.7149C1260.73 98.7113 1267.89 96.746 1274.3 92.994C1280.71 89.2421 1286.17 83.8196 1290.19 77.2088C1288.89 74.5164 1287.43 71.9219 1285.82 69.4427C1281.97 77.2941 1275.82 83.5175 1268.36 87.1259C1260.91 90.7342 1252.56 91.5208 1244.64 89.361C1236.73 87.2011 1229.7 82.2184 1224.67 75.2032C1219.65 68.188 1216.91 59.5421 1216.9 50.6368C1216.91 48.7983 1217.02 46.9622 1217.25 45.1406C1214.6 45.9738 1212.01 46.9956 1209.48 48.1993C1209.48 49.0118 1209.48 49.8083 1209.48 50.5889C1209.5 63.3263 1214.13 75.5383 1222.37 84.5562C1230.61 93.574 1241.79 98.6644 1253.46 98.7149Z" fill="#525282"/>
<path d="M1253.46 82.3675C1259.26 82.3618 1264.92 80.4697 1269.73 76.9326C1274.54 73.3956 1278.27 68.3742 1280.45 62.5102C1278.56 60.3625 1276.53 58.3586 1274.39 56.5123C1273.64 59.5864 1272.34 62.4644 1270.55 64.9738C1268.76 67.4832 1266.52 69.5723 1263.98 71.1155C1261.43 72.6587 1258.62 73.6242 1255.72 73.9544C1252.83 74.2846 1249.9 73.9725 1247.11 73.0367C1244.33 72.101 1241.75 70.5611 1239.52 68.5092C1237.3 66.4573 1235.47 63.9357 1234.16 61.0959C1232.85 58.2561 1232.08 55.1567 1231.89 51.9833C1231.71 48.8099 1232.11 45.6281 1233.08 42.6289C1230.41 42.65 1227.75 42.8656 1225.11 43.2741C1224.09 47.9426 1224.06 52.8015 1225.01 57.4858C1225.97 62.1702 1227.88 66.5583 1230.6 70.3205C1233.33 74.0827 1236.81 77.1212 1240.77 79.2077C1244.72 81.2942 1249.06 82.3745 1253.46 82.3675Z" fill="#525282"/>
<path d="M1180.21 151.637C1191.91 151.628 1203.34 147.832 1213.06 140.728C1222.78 133.624 1230.35 123.533 1234.81 111.731C1232.44 110.877 1230.13 109.847 1227.89 108.648C1223.98 118.943 1217.37 127.743 1208.88 133.939C1200.4 140.136 1190.42 143.45 1180.21 143.465C1178.13 143.454 1176.06 143.311 1173.99 143.034V151.278C1176.03 151.517 1178.11 151.637 1180.21 151.637Z" fill="#525282"/>
<path d="M1180.21 135.296C1189.09 135.29 1197.77 132.357 1205.1 126.883C1212.43 121.409 1218.08 113.648 1221.3 104.614C1219.12 103.047 1217.03 101.331 1215.04 99.4766C1212.32 108.62 1206.68 116.389 1199.14 121.36C1191.6 126.332 1182.67 128.175 1173.99 126.55V134.795C1176.05 135.119 1178.13 135.286 1180.21 135.296Z" fill="#525282"/>
<path d="M1200.2 53.6922C1200.59 53.4055 1200.96 53.0949 1201.38 52.832C1201.01 53.1427 1200.59 53.4055 1200.2 53.6922Z" fill="#525282"/>
<path d="M1201.93 52.4961L1201.42 52.8784L1201.93 52.52V52.4961Z" fill="#525282"/>
<path d="M1180.21 118.974C1187.06 118.956 1193.68 116.314 1198.92 111.51C1204.16 106.705 1207.69 100.044 1208.89 92.6891C1205.61 88.5786 1202.83 84.0345 1200.59 79.1641C1201.44 81.698 1201.87 84.376 1201.86 87.0737C1201.87 90.7585 1201.08 94.3929 1199.56 97.6863C1198.05 100.98 1195.85 103.841 1193.14 106.04C1190.43 108.239 1187.29 109.716 1183.97 110.352C1180.64 110.988 1177.23 110.766 1173.99 109.703V118.138C1176.03 118.66 1178.12 118.941 1180.21 118.974Z" fill="#525282"/>
<path d="M1200.59 79.2593C1200.16 77.886 1199.61 76.5647 1198.93 75.3164C1199.45 76.6546 1200 77.9689 1200.59 79.2593Z" fill="#525282"/>
<path d="M1432.62 72.4024C1424.67 72.4055 1416.8 70.6496 1409.49 67.2407C1402.18 63.8318 1395.58 58.8408 1390.08 52.569C1390.65 49.3711 1391.43 46.2239 1392.43 43.154C1399.01 52.1244 1407.95 58.6785 1418.05 61.9347C1428.15 65.1909 1438.91 64.9929 1448.91 61.3671C1458.9 57.7413 1467.63 50.8618 1473.93 41.6544C1480.23 32.4471 1483.8 21.3537 1484.15 9.86719C1486.65 11.5617 1489.03 13.463 1491.27 15.5544C1489.55 31.2179 1482.63 45.6516 1471.83 56.1265C1461.02 66.6014 1447.07 72.3916 1432.62 72.4024Z" fill="#525282"/>
<path d="M1432.62 56.0859C1425.35 56.0846 1418.19 54.1203 1411.79 50.3679C1405.38 46.6155 1399.93 41.1917 1395.91 34.5797C1397.2 31.8823 1398.66 29.2872 1400.29 26.8136C1404.13 34.6722 1410.27 40.9035 1417.73 44.5172C1425.19 48.131 1433.54 48.92 1441.46 46.7588C1449.37 44.5975 1456.4 39.6101 1461.42 32.5891C1466.45 25.568 1469.18 16.9159 1469.18 8.0077C1469.17 6.16927 1469.06 4.33327 1468.83 2.51172C1471.48 3.34106 1474.07 4.36281 1476.6 5.57029C1476.6 6.38275 1476.6 7.17927 1476.6 7.95987C1476.58 20.6972 1471.95 32.9093 1463.71 41.9271C1455.46 50.945 1444.29 56.0354 1432.62 56.0859Z" fill="#525282"/>
<path d="M1432.62 39.7384C1426.82 39.7328 1421.16 37.8406 1416.35 34.3036C1411.54 30.7665 1407.81 25.7452 1405.63 19.8811C1407.53 17.7338 1409.56 15.7301 1411.71 13.8834C1412.55 16.8488 1413.91 19.6056 1415.72 21.9965C1417.53 24.3873 1419.76 26.3654 1422.27 27.8177C1424.78 29.27 1427.53 30.168 1430.36 30.4606C1433.19 30.7532 1436.04 30.4347 1438.76 29.5231C1441.48 28.6115 1444 27.1247 1446.19 25.1477C1448.38 23.1706 1450.19 20.742 1451.53 18.0005C1452.86 15.2591 1453.68 12.2585 1453.95 9.16989C1454.21 6.08133 1453.92 2.96544 1453.09 0C1455.75 0.0211392 1458.42 0.236581 1461.06 0.645085C1461.59 3.039 1461.85 5.49408 1461.84 7.95717C1461.84 12.139 1461.08 16.2787 1459.61 20.1395C1458.13 24.0004 1455.98 27.5068 1453.26 30.4583C1450.55 33.4098 1447.33 35.7485 1443.79 37.3408C1440.25 38.9332 1436.45 39.7479 1432.62 39.7384Z" fill="#525282"/>
<path d="M1505.87 109.012C1494.17 109.003 1482.74 105.207 1473.02 98.1033C1463.3 90.9996 1455.73 80.908 1451.27 69.1061C1453.64 68.2524 1455.95 67.2224 1458.19 66.0234C1462.09 76.3198 1468.71 85.122 1477.19 91.3186C1485.68 97.5151 1495.66 100.828 1505.87 100.84C1507.95 100.841 1510.04 100.697 1512.11 100.409V108.653C1510.03 108.893 1507.95 109.013 1505.87 109.012Z" fill="#525282"/>
<path d="M1505.87 92.6634C1496.99 92.6566 1488.31 89.7245 1480.98 84.2505C1473.65 78.7764 1468 71.0151 1464.78 61.9814C1466.96 60.4138 1469.05 58.6978 1471.04 56.8438C1473.74 66.0281 1479.39 73.8331 1486.96 78.8115C1494.53 83.7899 1503.49 85.6041 1512.19 83.9176V92.1855C1510.1 92.5052 1507.98 92.6649 1505.87 92.6634Z" fill="#525282"/>
<path d="M1485.92 11.0868C1485.53 10.8 1485.16 10.4894 1484.74 10.2266C1485.15 10.4917 1485.54 10.7788 1485.92 11.0868Z" fill="#525282"/>
<path d="M1484.15 9.86719L1484.65 10.2496L1484.15 9.89111V9.86719Z" fill="#525282"/>
<path d="M1505.87 76.3436C1499.04 76.3357 1492.42 73.7132 1487.18 68.9323C1481.93 64.1515 1478.39 57.5151 1477.17 50.1779C1480.44 46.0547 1483.22 41.5034 1485.46 36.6289C1484.29 40.1925 1483.93 44.0112 1484.39 47.7622C1484.86 51.5132 1486.15 55.0865 1488.15 58.18C1490.15 61.2735 1492.8 63.7963 1495.88 65.5354C1498.96 67.2744 1502.38 68.1785 1505.85 68.1713C1507.96 68.1672 1510.06 67.8292 1512.08 67.1677V75.6028C1510.04 76.09 1507.96 76.3383 1505.87 76.3436Z" fill="#525282"/>
<path d="M1485.49 36.6302C1485.92 35.2569 1486.47 33.9358 1487.15 32.6875C1486.63 34.0257 1486.08 35.3398 1485.49 36.6302Z" fill="#525282"/>
<path d="M1338.55 115.031C1330.6 115.034 1322.73 113.278 1315.42 109.869C1308.11 106.461 1301.51 101.47 1296.02 95.1977C1296.57 91.9973 1297.35 88.8492 1298.36 85.7828C1304.94 94.7531 1313.88 101.307 1323.98 104.564C1334.08 107.82 1344.85 107.622 1354.84 103.996C1364.83 100.37 1373.56 93.4907 1379.86 84.2833C1386.17 75.076 1389.73 63.9826 1390.08 52.4961C1392.58 54.1964 1394.96 56.0974 1397.2 58.1833C1395.48 73.8468 1388.56 88.2804 1377.76 98.7552C1366.95 109.23 1353 115.02 1338.55 115.031Z" fill="#525282"/>
<path d="M1338.55 98.7149C1331.28 98.7113 1324.12 96.746 1317.71 92.994C1311.3 89.2421 1305.84 83.8196 1301.82 77.2088C1303.12 74.5166 1304.58 71.9221 1306.2 69.4427C1310.04 77.3013 1316.18 83.5325 1323.64 87.1463C1331.1 90.76 1339.45 91.5489 1347.37 89.3877C1355.28 87.2265 1362.31 82.2392 1367.33 75.2181C1372.36 68.197 1375.09 59.545 1375.09 50.6368C1375.08 48.7983 1374.97 46.9622 1374.74 45.1406C1377.39 45.9738 1379.98 46.9956 1382.51 48.1993C1382.51 49.0118 1382.51 49.8083 1382.51 50.5889C1382.49 63.3221 1377.86 75.5305 1369.62 84.5477C1361.39 93.5649 1350.22 98.6581 1338.55 98.7149Z" fill="#525282"/>
<path d="M1338.55 82.3675C1332.75 82.3618 1327.09 80.4697 1322.28 76.9326C1317.47 73.3956 1313.74 68.3742 1311.56 62.5102C1313.45 60.3625 1315.48 58.3586 1317.62 56.5123C1318.4 59.5457 1319.73 62.3782 1321.53 64.8429C1323.33 67.3075 1325.56 69.3546 1328.09 70.8635C1330.62 72.3723 1333.41 73.3124 1336.28 73.6283C1339.15 73.9442 1342.05 73.6296 1344.81 72.703C1347.57 71.7764 1350.13 70.2565 1352.34 68.2329C1354.55 66.2094 1356.37 63.7232 1357.69 60.9206C1359.01 58.1179 1359.8 55.0556 1360.02 51.9142C1360.23 48.7727 1359.87 45.6157 1358.95 42.6289C1361.62 42.65 1364.28 42.8656 1366.92 43.2741C1367.94 47.9524 1367.97 52.8219 1367.01 57.5152C1366.06 62.2085 1364.13 66.603 1361.39 70.3676C1358.65 74.1321 1355.17 77.1682 1351.19 79.2469C1347.22 81.3256 1342.87 82.3926 1338.46 82.3675H1338.55Z" fill="#525282"/>
<path d="M1411.8 151.637C1400.1 151.628 1388.67 147.832 1378.95 140.728C1369.23 133.624 1361.67 123.533 1357.2 111.731C1359.57 110.877 1361.88 109.847 1364.12 108.648C1368.03 118.943 1374.64 127.743 1383.13 133.939C1391.61 140.136 1401.59 143.45 1411.8 143.465C1413.88 143.454 1415.95 143.311 1418.02 143.034V151.278C1415.98 151.517 1413.9 151.637 1411.8 151.637Z" fill="#525282"/>
<path d="M1411.8 135.296C1402.92 135.29 1394.25 132.357 1386.91 126.883C1379.58 121.409 1373.94 113.648 1370.71 104.614C1372.89 103.047 1374.99 101.331 1376.97 99.4766C1379.69 108.629 1385.34 116.405 1392.89 121.378C1400.44 126.351 1409.38 128.187 1418.06 126.55V134.795C1415.99 135.121 1413.9 135.289 1411.8 135.296Z" fill="#525282"/>
<path d="M1391.79 53.6922C1391.4 53.4055 1391.03 53.0949 1390.61 52.832C1391 53.1427 1391.42 53.4055 1391.79 53.6922Z" fill="#525282"/>
<path d="M1390.08 52.4961L1390.59 52.8784L1390.08 52.52V52.4961Z" fill="#525282"/>
<path d="M1411.8 118.974C1404.96 118.956 1398.34 116.314 1393.09 111.51C1387.85 106.705 1384.32 100.044 1383.12 92.6891C1386.4 88.5786 1389.19 84.0345 1391.42 79.1641C1390.58 81.7011 1390.15 84.3771 1390.15 87.0737C1390.13 90.772 1390.91 94.4234 1392.42 97.7339C1393.93 101.044 1396.13 103.921 1398.85 106.132C1401.56 108.343 1404.72 109.827 1408.05 110.464C1411.39 111.101 1414.82 110.873 1418.06 109.798V118.234C1416.01 118.727 1413.91 118.975 1411.8 118.974Z" fill="#525282"/>
<path d="M1391.42 79.2593C1391.85 77.886 1392.41 76.5647 1393.08 75.3164C1392.56 76.6546 1392.01 77.9689 1391.42 79.2593Z" fill="#525282"/>
<path d="M1591.38 72.4024C1599.33 72.4046 1607.2 70.6482 1614.51 67.2395C1621.83 63.8308 1628.43 58.8404 1633.93 52.569C1633.37 49.3711 1632.59 46.2239 1631.59 43.154C1625.01 52.1334 1616.07 58.6959 1605.97 61.9576C1595.87 65.2194 1585.09 65.0238 1575.09 61.397C1565.1 57.7702 1556.36 50.8866 1550.06 41.6733C1543.75 32.4599 1540.19 21.3595 1539.84 9.86719C1537.35 11.5679 1534.98 13.4689 1532.75 15.5544C1534.47 31.2138 1541.38 45.6443 1552.18 56.1186C1562.99 66.5929 1576.93 72.3857 1591.38 72.4024Z" fill="#525282"/>
<path d="M1591.38 56.0808C1598.68 56.0876 1605.87 54.1127 1612.3 50.3337C1618.73 46.5547 1624.2 41.09 1628.22 34.4313C1626.93 31.7339 1625.47 29.1388 1623.84 26.6652C1620 34.5238 1613.86 40.755 1606.4 44.3688C1598.94 47.9825 1590.59 48.7715 1582.67 46.6103C1574.75 44.4491 1567.73 39.4617 1562.7 32.4406C1557.68 25.4195 1554.95 16.7675 1554.95 7.85927C1554.95 6.02083 1555.07 4.18483 1555.3 2.36328C1552.65 3.19262 1550.05 4.21437 1547.53 5.42186C1547.53 6.23431 1547.53 7.03084 1547.53 7.81143C1547.51 20.5489 1552.11 32.7761 1560.33 41.8208C1568.54 50.8656 1579.71 55.9924 1591.38 56.0808Z" fill="#525282"/>
<path d="M1591.38 39.7384C1597.17 39.7328 1602.84 37.8406 1607.65 34.3036C1612.45 30.7665 1616.19 25.7452 1618.37 19.8811C1616.47 17.7341 1614.45 15.7303 1612.3 13.8834C1611.58 16.9864 1610.29 19.8971 1608.51 22.4386C1606.73 24.98 1604.49 27.0991 1601.93 28.6671C1599.38 30.2351 1596.55 31.2194 1593.64 31.5597C1590.72 31.9001 1587.77 31.5896 1584.97 30.6472C1582.17 29.7047 1579.57 28.1501 1577.34 26.0776C1575.1 24.0051 1573.27 21.4583 1571.97 18.5917C1570.66 15.7251 1569.91 12.5988 1569.74 9.40267C1569.58 6.20658 1570.01 3.00754 1571.02 0C1568.34 0.0211412 1565.67 0.236581 1563.03 0.645085C1562.03 5.31188 1562.01 10.1643 1562.97 14.8409C1563.93 19.5175 1565.84 23.8977 1568.56 27.6552C1571.29 31.4128 1574.75 34.4508 1578.7 36.5429C1582.65 38.635 1586.99 39.7273 1591.38 39.7384Z" fill="#525282"/>
<path d="M1518.15 109.012C1529.85 109.003 1541.28 105.207 1551 98.1033C1560.71 90.9996 1568.28 80.908 1572.75 69.1061C1570.37 68.2528 1568.05 67.2228 1565.81 66.0234C1561.91 76.3198 1555.3 85.1228 1546.81 91.3199C1538.33 97.5169 1528.36 100.83 1518.15 100.84C1516.06 100.841 1513.98 100.697 1511.91 100.409V108.653C1513.98 108.893 1516.07 109.013 1518.15 109.012Z" fill="#525282"/>
<path d="M1518.15 92.6634C1527.03 92.6533 1535.7 89.7199 1543.03 84.2462C1550.36 78.7726 1556.01 71.0132 1559.24 61.9814C1557.05 60.4197 1554.96 58.7035 1552.98 56.8438C1550.28 66.009 1544.64 73.7995 1537.09 78.7761C1529.54 83.7526 1520.6 85.579 1511.91 83.9176V92.1855C1513.98 92.5025 1516.06 92.6622 1518.15 92.6634Z" fill="#525282"/>
<path d="M1538.11 11.0868C1538.49 10.8 1538.88 10.4894 1539.27 10.2266C1538.95 10.5372 1538.46 10.7761 1538.11 11.0868Z" fill="#525282"/>
<path d="M1539.84 9.86719L1539.34 10.2496L1539.84 9.89111V9.86719Z" fill="#525282"/>
<path d="M1518.15 76.3436C1524.98 76.3291 1531.58 73.7032 1536.82 68.9225C1542.05 64.1419 1545.59 57.5091 1546.81 50.1779C1543.54 46.0541 1540.76 41.5027 1538.53 36.6289C1539.37 39.1659 1539.8 41.8418 1539.8 44.5384C1539.8 48.2242 1539.01 51.8589 1537.49 55.152C1535.98 58.4451 1533.78 61.3053 1531.07 63.5041C1528.36 65.703 1525.21 67.1795 1521.89 67.8156C1518.56 68.4517 1515.14 68.2298 1511.91 67.1677V75.6028C1513.96 76.0929 1516.05 76.3413 1518.15 76.3436Z" fill="#525282"/>
<path d="M1538.46 36.6302C1538.02 35.2651 1537.46 33.9458 1536.8 32.6875C1537.37 34.0257 1537.94 35.3398 1538.46 36.6302Z" fill="#525282"/>
<path d="M1685.44 115.031C1693.4 115.033 1701.27 113.277 1708.58 109.868C1715.89 106.46 1722.5 101.469 1728 95.1977C1727.44 91.9999 1726.65 88.8527 1725.66 85.7828C1719.07 94.7491 1710.13 101.299 1700.03 104.553C1689.93 107.807 1679.16 107.608 1669.17 103.983C1659.18 100.358 1650.45 93.4814 1644.14 84.2769C1637.84 75.0725 1634.27 63.9818 1633.91 52.4961C1631.42 54.1968 1629.05 56.0978 1626.82 58.1833C1628.54 73.8427 1635.45 88.273 1646.25 98.7474C1657.05 109.222 1670.99 115.014 1685.44 115.031Z" fill="#525282"/>
<path d="M1685.44 98.7149C1692.72 98.7176 1699.88 96.755 1706.29 93.0025C1712.7 89.25 1718.16 83.8241 1722.18 77.2088C1720.89 74.5114 1719.42 71.9163 1717.8 69.4427C1713.96 77.3013 1707.82 83.5325 1700.36 87.1463C1692.9 90.76 1684.55 91.5489 1676.63 89.3877C1668.71 87.2265 1661.68 82.2392 1656.66 75.2181C1651.64 68.197 1648.91 59.545 1648.91 50.6368C1648.91 48.7983 1649.03 46.9622 1649.26 45.1406C1646.61 45.97 1644.01 46.9919 1641.49 48.1993C1641.49 49.0118 1641.49 49.8083 1641.49 50.5889C1641.5 63.3221 1646.14 75.5305 1654.37 84.5477C1662.61 93.5649 1673.78 98.6581 1685.44 98.7149Z" fill="#525282"/>
<path d="M1685.44 82.3675C1691.24 82.365 1696.91 80.4742 1701.72 76.9367C1706.52 73.3992 1710.26 68.3761 1712.43 62.5102C1710.55 60.3568 1708.52 58.3524 1706.37 56.5123C1705.65 59.6153 1704.36 62.5261 1702.58 65.0676C1700.79 67.6091 1698.56 69.7282 1696 71.2962C1693.44 72.8642 1690.62 73.8483 1687.7 74.1886C1684.79 74.529 1681.84 74.2186 1679.04 73.2762C1676.23 72.3338 1673.64 70.7791 1671.4 68.7066C1669.17 66.6342 1667.34 64.0872 1666.04 61.2206C1664.73 58.354 1663.97 55.2277 1663.81 52.0316C1663.65 48.8355 1664.08 45.6364 1665.08 42.6289C1662.42 42.6492 1659.76 42.8648 1657.12 43.2741C1656.58 45.6681 1656.32 48.1231 1656.33 50.5862C1656.34 59.0113 1659.41 67.0876 1664.87 73.045C1670.33 79.0025 1677.72 82.3549 1685.44 82.3675Z" fill="#525282"/>
<path d="M1612.22 151.637C1623.91 151.628 1635.34 147.832 1645.06 140.728C1654.78 133.624 1662.35 123.533 1666.81 111.731C1664.44 110.873 1662.12 109.843 1659.87 108.648C1655.97 118.943 1649.36 127.744 1640.88 133.941C1632.4 140.137 1622.42 143.452 1612.22 143.465C1610.13 143.454 1608.05 143.31 1605.98 143.034V151.278C1608.04 151.517 1610.11 151.637 1612.22 151.637Z" fill="#525282"/>
<path d="M1612.22 135.296C1621.1 135.29 1629.77 132.357 1637.1 126.883C1644.43 121.409 1650.08 113.648 1653.31 104.614C1651.12 103.053 1649.03 101.336 1647.05 99.4766C1644.32 108.619 1638.67 116.385 1631.13 121.356C1623.59 126.327 1614.66 128.171 1605.98 126.55V134.795C1608.04 135.12 1610.13 135.287 1612.22 135.296Z" fill="#525282"/>
<path d="M1632.18 53.6922C1632.58 53.4055 1632.95 53.0949 1633.34 52.832L1632.18 53.6922Z" fill="#525282"/>
<path d="M1633.91 52.4961L1633.41 52.8784L1633.93 52.52L1633.91 52.4961Z" fill="#525282"/>
<path d="M1612.22 118.974C1619.06 118.956 1625.68 116.314 1630.92 111.51C1636.16 106.705 1639.69 100.044 1640.89 92.6891C1637.61 88.5845 1634.82 84.0394 1632.6 79.1641C1633.43 81.7011 1633.86 84.3771 1633.87 87.0737C1633.87 90.7595 1633.08 94.3941 1631.56 97.6872C1630.04 100.98 1627.84 103.84 1625.13 106.039C1622.42 108.238 1619.28 109.715 1615.95 110.351C1612.63 110.987 1609.21 110.765 1605.98 109.703V118.138C1608.02 118.66 1610.12 118.941 1612.22 118.974Z" fill="#525282"/>
<path d="M1632.6 79.2593C1632.16 77.8901 1631.6 76.5697 1630.93 75.3164C1631.44 76.6546 1632.01 77.9689 1632.6 79.2593Z" fill="#525282"/>
</svg>
