<svg width="1728" height="157" viewBox="0 0 1728 157" fill="none" xmlns="http://www.w3.org/2000/svg">
<path d="M136.45 84.5938C128.497 84.5916 120.626 86.3478 113.312 89.7565C105.997 93.1652 99.3916 98.1558 93.8926 104.427C94.4535 107.634 95.2365 110.789 96.235 113.866C102.815 104.887 111.758 98.324 121.859 95.0623C131.961 91.8005 142.735 91.9961 152.731 95.6229C162.728 99.2497 171.466 106.133 177.768 115.347C184.071 124.56 187.636 135.66 187.982 147.153C190.473 145.444 192.844 143.535 195.075 141.442C193.357 125.782 186.444 111.352 175.642 100.878C164.84 90.4032 150.898 84.6104 136.45 84.5938Z" fill="#525282"/>
<path d="M136.45 100.941C129.176 100.939 122.015 102.901 115.606 106.654C109.196 110.406 103.737 115.832 99.7158 122.448C101.012 125.142 102.475 127.737 104.094 130.214C107.937 122.355 114.076 116.124 121.536 112.51C128.995 108.896 137.347 108.107 145.264 110.269C153.181 112.43 160.21 117.417 165.233 124.438C170.255 131.459 172.985 140.111 172.986 149.02C172.992 150.85 172.875 152.679 172.636 154.492C175.299 153.68 177.903 152.658 180.43 151.433C180.43 150.645 180.43 149.832 180.43 149.043C180.412 136.308 175.776 124.099 167.534 115.085C159.293 106.071 148.117 100.986 136.45 100.941Z" fill="#525282"/>
<path d="M136.449 117.263C130.649 117.273 124.984 119.17 120.176 122.711C115.369 126.253 111.637 131.277 109.457 137.144C111.352 139.275 113.378 141.263 115.521 143.094C116.832 137.518 119.963 132.657 124.327 129.424C128.691 126.192 133.987 124.812 139.218 125.543C144.449 126.274 149.255 129.066 152.732 133.394C156.209 137.722 158.118 143.287 158.1 149.044C158.101 151.751 157.663 154.436 156.808 156.977C159.482 156.977 162.152 156.769 164.799 156.356C165.816 151.676 165.846 146.806 164.889 142.112C163.931 137.417 162.01 133.021 159.27 129.255C156.53 125.489 153.042 122.451 149.071 120.369C145.099 118.288 140.746 117.217 136.34 117.239L136.449 117.263Z" fill="#525282"/>
<path d="M209.654 48.0117C197.967 48.0278 186.547 51.8251 176.837 58.9238C167.127 66.0224 159.563 76.1037 155.101 87.8937C157.46 88.7723 159.77 89.8016 162.018 90.9762C165.92 80.6881 172.528 71.8926 181.006 65.7003C189.484 59.508 199.453 56.1966 209.654 56.184C211.739 56.1855 213.823 56.3211 215.893 56.5902V48.3701C213.821 48.1303 211.738 48.0107 209.654 48.0117Z" fill="#525282"/>
<path d="M209.655 64.2383C200.771 64.2535 192.098 67.1917 184.768 72.6695C177.438 78.1472 171.791 85.9098 168.564 94.9442C170.764 96.4972 172.864 98.2138 174.847 100.082C177.544 90.9166 183.187 83.1261 190.736 78.1495C198.285 73.173 207.229 71.3466 215.916 73.008V64.7401C213.842 64.4139 211.75 64.2462 209.655 64.2383Z" fill="#525282"/>
<path d="M187.981 147.152L188.485 146.77L187.981 147.128V147.152Z" fill="#525282"/>
<path d="M209.654 80.6758C202.811 80.6906 196.191 83.3319 190.952 88.1372C185.714 92.9426 182.19 99.6059 180.998 106.961C184.268 111.079 187.049 115.631 189.273 120.51C187.927 116.395 187.654 111.953 188.484 107.678C189.314 103.404 191.214 99.4644 193.974 96.2989C196.733 93.1334 200.243 90.8659 204.113 89.7487C207.983 88.6315 212.061 88.7086 215.893 89.9712V81.536C213.848 81.0057 211.756 80.7173 209.654 80.6758Z" fill="#525282"/>
<path d="M189.295 120.395C189.746 121.758 190.303 123.077 190.959 124.337C190.455 122.999 189.952 121.589 189.295 120.395Z" fill="#525282"/>
<path d="M136.625 11.4024C128.675 11.4055 120.807 9.64955 113.497 6.24068C106.186 2.83181 99.584 -2.15923 94.0898 -8.43103C94.6537 -11.6289 95.4367 -14.7761 96.4322 -17.846C103.014 -8.87564 111.956 -2.32147 122.053 0.934734C132.151 4.19094 142.92 3.99289 152.911 0.367096C162.902 -3.2587 171.636 -10.1382 177.938 -19.3456C184.239 -28.5529 187.806 -39.6463 188.157 -51.1328C190.655 -49.4325 193.033 -47.5315 195.272 -45.4456C193.554 -29.7821 186.638 -15.3484 175.831 -4.87351C165.025 5.60137 151.077 11.3916 136.625 11.4024Z" fill="#525282"/>
<path d="M209.874 48.012C198.177 48.0034 186.746 44.2069 177.027 37.1033C167.308 29.9996 159.738 19.908 155.276 8.10608C157.644 7.25241 159.955 6.22239 162.194 5.02344C166.101 15.3198 172.714 24.122 181.2 30.3186C189.686 36.5151 199.664 39.8281 209.874 39.8395C211.96 39.8406 214.043 39.697 216.113 39.4094V47.6535C214.04 47.8933 211.958 48.013 209.874 48.012Z" fill="#525282"/>
<path d="M209.873 31.6634C200.991 31.6566 192.318 28.7245 184.987 23.2505C177.656 17.7764 172.008 10.0151 168.783 0.981388C170.967 -0.586206 173.058 -2.30218 175.044 -4.15625C177.743 5.03286 183.403 12.8414 190.976 17.8203C198.549 22.7992 207.519 24.6104 216.222 22.9176V31.1855C214.119 31.5063 211.997 31.6661 209.873 31.6634Z" fill="#525282"/>
<path d="M209.873 15.3436C203.045 15.3301 196.436 12.7051 191.197 7.92473C185.958 3.14437 182.419 -3.48896 181.195 -10.8221C184.465 -14.9453 187.252 -19.4966 189.492 -24.3711C188.322 -20.8075 187.955 -16.9888 188.422 -13.2378C188.889 -9.48676 190.176 -5.91352 192.175 -2.82003C194.174 0.273462 196.826 2.79633 199.906 4.53537C202.986 6.27441 206.405 7.17846 209.873 7.17128C211.986 7.16719 214.088 6.82919 216.112 6.1677V14.6028C214.063 15.0917 211.971 15.34 209.873 15.3436Z" fill="#525282"/>
<path d="M42.5569 54.0311C34.6042 54.0319 26.7337 52.2752 19.4197 48.8665C12.1058 45.4579 5.49981 40.468 0 34.1977C0.560644 30.9966 1.35118 27.8486 2.36427 24.7828C8.94642 33.7531 17.8879 40.3074 27.9854 43.5636C38.0829 46.8198 48.8519 46.6216 58.8431 42.9958C68.8344 39.3701 77.5684 32.4907 83.8699 23.2833C90.1713 14.076 93.7378 2.98261 94.0894 -8.50391C96.587 -6.80362 98.9652 -4.90262 101.204 -2.81671C99.4859 12.8468 92.5698 27.2804 81.7634 37.7552C70.957 48.2301 57.0092 54.0203 42.5569 54.0311Z" fill="#525282"/>
<path d="M42.5571 37.7149C35.2848 37.7113 28.1261 35.746 21.7175 31.994C15.3089 28.2421 9.84894 22.8196 5.82324 16.2088C7.12231 13.5164 8.58501 10.9219 10.2015 8.44267C14.0515 16.2941 20.1929 22.5175 27.6517 26.1259C35.1104 29.7342 43.4593 30.5208 51.3741 28.361C59.289 26.2011 66.3166 21.2184 71.3422 14.2032C76.3678 7.18803 79.1036 -1.45787 79.1158 -10.3632C79.1103 -12.2017 78.9933 -14.0378 78.7655 -15.8594C81.4144 -15.0262 84.0104 -14.0044 86.5369 -12.8007C86.5369 -11.9882 86.5369 -11.1917 86.5369 -10.4111C86.5197 2.32626 81.884 14.5383 73.6431 23.5562C65.4021 32.574 54.226 37.6644 42.5571 37.7149Z" fill="#525282"/>
<path d="M42.5566 21.3675C36.7586 21.3618 31.0939 19.4697 26.2859 15.9326C21.478 12.3956 17.7452 7.37422 15.5645 1.51016C17.4583 -0.637461 19.4843 -2.64142 21.6284 -4.48769C22.4635 -1.52382 23.8253 1.23147 25.6359 3.62087C27.4466 6.01027 29.6707 7.98698 32.1812 9.43816C34.6917 10.8893 37.4395 11.7866 40.2677 12.0786C43.0959 12.3706 45.949 12.0518 48.6643 11.1402C51.3796 10.2286 53.9038 8.74207 56.0928 6.76564C58.2817 4.78921 60.0927 2.36151 61.4221 -0.378862C62.7516 -3.11923 63.5735 -6.11861 63.8411 -9.20572C64.1086 -12.2928 63.8164 -15.4072 62.9813 -18.3711C65.6477 -18.35 68.3097 -18.1344 70.9498 -17.7259C71.9652 -13.0574 71.9983 -8.19854 71.0466 -3.51415C70.0949 1.17023 68.1831 5.55827 65.4549 9.32046C62.7267 13.0827 59.2529 16.1212 55.2945 18.2077C51.3362 20.2942 46.9961 21.3745 42.6004 21.3675H42.5566Z" fill="#525282"/>
<path d="M115.805 90.6368C104.109 90.6282 92.6774 86.8318 82.9585 79.7281C73.2396 72.6244 65.67 62.5329 61.208 50.7309C63.5758 49.8773 65.8871 48.8474 68.1257 47.6484C72.0346 57.943 78.6489 66.7433 87.1344 72.9395C95.6198 79.1356 105.596 82.45 115.805 82.4645C117.884 82.4544 119.96 82.3108 122.022 82.0344V90.2785C119.899 90.5174 117.907 90.6368 115.805 90.6368Z" fill="#525282"/>
<path d="M115.806 74.2964C106.924 74.2896 98.2502 71.3574 90.9192 65.8833C83.5881 60.4092 77.9409 52.6479 74.7158 43.6142C76.8994 42.0466 78.9905 40.3306 80.9768 38.4766C83.6978 47.6342 89.3531 55.4135 96.905 60.3867C104.457 65.3599 113.398 67.1933 122.089 65.5504V73.7945C120.008 74.122 117.908 74.2897 115.806 74.2964Z" fill="#525282"/>
<path d="M115.806 57.9744C108.961 57.9558 102.341 55.3138 97.0991 50.5096C91.8576 45.7054 88.3285 39.0442 87.1279 31.6891C90.4024 27.5786 93.1899 23.0345 95.4248 18.1641C94.577 20.698 94.1472 23.376 94.1551 26.0737C94.1348 29.7747 94.9119 33.4291 96.4238 36.7419C97.9356 40.0547 100.14 42.933 102.858 45.1448C105.577 47.3565 108.734 48.8394 112.074 49.4741C115.415 50.1088 118.845 49.8773 122.089 48.7984V57.2336C120.025 57.7288 117.918 57.9772 115.806 57.9744Z" fill="#525282"/>
<path d="M95.4248 18.2593C95.8536 16.886 96.4111 15.5647 97.0886 14.3164C96.5632 15.6546 96.0159 16.9689 95.4248 18.2593Z" fill="#525282"/>
<path d="M295.578 84.5938C303.528 84.5907 311.395 86.3466 318.706 89.7555C326.017 93.1643 332.619 98.1554 338.113 104.427C337.562 107.636 336.779 110.792 335.77 113.866C329.188 104.896 320.247 98.3414 310.149 95.0852C300.052 91.829 289.283 92.0272 279.292 95.653C269.3 99.2788 260.566 106.158 254.265 115.365C247.963 124.573 244.397 135.666 244.045 147.153C241.547 145.444 239.169 143.535 236.931 141.442C238.649 125.778 245.565 111.345 256.371 100.87C267.178 90.3948 281.126 84.6046 295.578 84.5938Z" fill="#525282"/>
<path d="M295.578 100.941C302.85 100.945 310.009 102.91 316.418 106.662C322.826 110.414 328.286 115.837 332.312 122.448C331.007 125.137 329.545 127.731 327.934 130.214C324.09 122.355 317.951 116.124 310.492 112.51C303.033 108.896 294.681 108.107 286.764 110.269C278.847 112.43 271.818 117.417 266.795 124.438C261.772 131.459 259.043 140.111 259.041 149.02C259.047 150.85 259.164 152.678 259.392 154.492C256.736 153.68 254.139 152.658 251.62 151.433C251.62 150.645 251.62 149.832 251.62 149.043C251.643 136.314 256.278 124.112 264.514 115.1C272.75 106.088 283.917 100.998 295.578 100.941Z" fill="#525282"/>
<path d="M295.578 117.262C301.378 117.273 307.043 119.17 311.851 122.711C316.659 126.252 320.39 131.277 322.57 137.143C320.671 139.277 318.645 141.272 316.506 143.117C315.761 140.043 314.455 137.165 312.665 134.656C310.876 132.146 308.641 130.057 306.094 128.514C303.547 126.971 300.74 126.005 297.843 125.675C294.945 125.345 292.017 125.657 289.233 126.593C286.448 127.529 283.866 129.068 281.641 131.12C279.415 133.172 277.592 135.694 276.282 138.534C274.971 141.373 274.199 144.473 274.013 147.646C273.826 150.82 274.229 154.001 275.197 157.001C272.531 156.999 269.868 156.792 267.229 156.379C266.212 151.7 266.181 146.829 267.138 142.135C268.096 137.441 270.017 133.045 272.757 129.279C275.497 125.512 278.985 122.474 282.957 120.393C286.929 118.311 291.282 117.241 295.688 117.262H295.578Z" fill="#525282"/>
<path d="M222.329 48.0117C234.024 48.0184 245.453 51.8113 255.172 58.9105C264.89 66.0097 272.461 76.0962 276.927 87.8937C274.566 88.7681 272.256 89.7975 270.009 90.9762C266.099 80.6843 259.484 71.8871 250.998 65.6951C242.513 59.503 232.537 56.1935 222.329 56.184C220.252 56.1862 218.176 56.3218 216.112 56.5902V48.3701C218.177 48.1296 220.253 48.0101 222.329 48.0117Z" fill="#525282"/>
<path d="M222.329 64.2383C231.214 64.2502 239.888 67.1872 247.218 72.6654C254.549 78.1435 260.196 85.9079 263.42 94.9442C261.231 96.5037 259.139 98.2201 257.159 100.082C254.773 92.0462 250.119 85.041 243.862 80.0702C237.606 75.0994 230.068 72.4181 222.329 72.4106C220.245 72.4144 218.165 72.6142 216.112 73.008V64.7401C218.172 64.416 220.249 64.2483 222.329 64.2383Z" fill="#525282"/>
<path d="M244.045 147.152L243.542 146.77L244.045 147.128V147.152Z" fill="#525282"/>
<path d="M222.329 80.6758C229.175 80.6897 235.798 83.33 241.04 88.135C246.283 92.9401 249.811 99.6039 251.007 106.961C247.737 111.084 244.95 115.635 242.71 120.51C243.558 117.968 243.988 115.282 243.98 112.577C243.992 108.897 243.216 105.266 241.714 101.972C240.212 98.6781 238.025 95.8131 235.329 93.6055C232.632 91.3979 229.5 89.9088 226.183 89.257C222.865 88.6053 219.454 88.8089 216.222 89.8517V81.4165C218.228 80.935 220.275 80.6867 222.329 80.6758Z" fill="#525282"/>
<path d="M242.711 120.395C242.278 121.766 241.72 123.087 241.047 124.337C241.572 122.999 242.12 121.589 242.711 120.395Z" fill="#525282"/>
<path d="M295.381 11.4024C303.334 11.4046 311.205 9.64824 318.519 6.23951C325.833 2.8308 332.439 -2.15964 337.938 -8.43103C337.374 -11.6289 336.591 -14.7761 335.596 -17.846C329.016 -8.8666 320.073 -2.30414 309.971 0.957634C299.87 4.21941 289.096 4.02377 279.099 0.396996C269.103 -3.22978 260.365 -10.1134 254.062 -19.3267C247.76 -28.5401 244.195 -39.6405 243.849 -51.1328C241.358 -49.4321 238.987 -47.5311 236.756 -45.4456C238.474 -29.7862 245.387 -15.3557 256.188 -4.88139C266.99 5.59295 280.933 11.3857 295.381 11.4024Z" fill="#525282"/>
<path d="M222.154 48.012C233.851 48.0034 245.282 44.2069 255.001 37.1033C264.72 29.9996 272.289 19.908 276.751 8.10608C274.376 7.2528 272.058 6.22278 269.812 5.02344C265.912 15.3198 259.302 24.1228 250.82 30.3199C242.337 36.5169 232.361 39.8297 222.154 39.8395C220.068 39.8406 217.984 39.697 215.915 39.4094V47.6535C217.987 47.8933 220.07 48.013 222.154 48.012Z" fill="#525282"/>
<path d="M222.154 31.6634C231.036 31.6533 239.708 28.7199 247.038 23.2462C254.369 17.7726 260.017 10.0132 263.244 0.981387C261.057 -0.580301 258.965 -2.29655 256.983 -4.15625C254.287 5.00905 248.643 12.7995 241.094 17.7761C233.545 22.7526 224.602 24.579 215.915 22.9176V31.1855C217.982 31.5025 220.067 31.6622 222.154 31.6634Z" fill="#525282"/>
<path d="M222.154 15.3436C228.98 15.3291 235.585 12.7032 240.821 7.92254C246.057 3.14186 249.591 -3.49093 250.81 -10.8221C247.547 -14.9459 244.767 -19.4973 242.535 -24.3711C243.372 -21.8341 243.802 -19.1582 243.805 -16.4616C243.805 -12.7758 243.015 -9.14108 241.498 -5.84797C239.981 -2.55487 237.78 0.305319 235.07 2.50415C232.36 4.70298 229.217 6.17945 225.891 6.81556C222.565 7.45166 219.148 7.22984 215.915 6.1677V14.6028C217.964 15.0929 220.056 15.3413 222.154 15.3436Z" fill="#525282"/>
<path d="M389.448 54.0311C397.401 54.0333 405.272 52.2771 412.586 48.8684C419.901 45.4597 426.506 40.4691 432.005 34.1977C431.442 30.9999 430.659 27.8527 429.663 24.7828C423.077 33.7491 414.134 40.2994 404.037 43.5531C393.939 46.8068 383.171 46.608 373.18 42.9832C363.189 39.3583 354.454 32.4814 348.15 23.2769C341.846 14.0725 338.274 2.98181 337.916 -8.50391C335.426 -6.80321 333.055 -4.90221 330.823 -2.81671C332.541 12.8427 339.454 27.273 350.256 37.7474C361.058 48.2217 375 54.0145 389.448 54.0311Z" fill="#525282"/>
<path d="M389.448 37.7149C396.722 37.7176 403.882 35.755 410.292 32.0025C416.702 28.25 422.161 22.8241 426.182 16.2088C424.891 13.5114 423.428 10.9163 421.804 8.44267C417.961 16.3013 411.822 22.5325 404.362 26.1463C396.903 29.76 388.551 30.5489 380.634 28.3877C372.717 26.2265 365.688 21.2392 360.665 14.2181C355.642 7.197 352.913 -1.45503 352.911 -10.3632C352.917 -12.2017 353.034 -14.0378 353.262 -15.8594C350.612 -15.03 348.015 -14.0081 345.49 -12.8007C345.49 -11.9882 345.49 -11.1917 345.49 -10.4111C345.507 2.32213 350.14 14.5305 358.376 23.5477C366.613 32.5649 377.783 37.6581 389.448 37.7149Z" fill="#525282"/>
<path d="M389.448 21.3675C395.246 21.3618 400.911 19.4697 405.719 15.9326C410.527 12.3956 414.26 7.37421 416.44 1.51016C414.552 -0.643234 412.525 -2.64757 410.376 -4.48769C409.656 -1.38467 408.365 1.52612 406.582 4.0676C404.799 6.60908 402.562 8.72818 400.005 10.2962C397.448 11.8642 394.626 12.8483 391.71 13.1886C388.794 13.529 385.845 13.2186 383.043 12.2762C380.24 11.3338 377.642 9.77911 375.407 7.70665C373.172 5.63419 371.347 3.08716 370.042 0.220572C368.736 -2.64602 367.979 -5.77234 367.815 -8.96843C367.652 -12.1645 368.085 -15.3636 369.089 -18.3711C366.416 -18.35 363.746 -18.1344 361.099 -17.7259C360.101 -13.0591 360.08 -8.20665 361.039 -3.53005C361.998 1.14655 363.911 5.52676 366.636 9.28429C369.361 13.0418 372.827 16.0797 376.777 18.1718C380.727 20.2639 385.058 21.3563 389.448 21.3675Z" fill="#525282"/>
<path d="M316.221 90.6368C327.918 90.6282 339.349 86.8318 349.068 79.7281C358.787 72.6244 366.357 62.5329 370.819 50.7309C368.444 49.8777 366.125 48.8478 363.879 47.6484C359.976 57.9429 353.367 66.7442 344.884 72.9408C336.402 79.1374 326.428 82.4516 316.221 82.4645C314.136 82.4537 312.053 82.3101 309.982 82.0344V90.2785C312.04 90.5174 314.12 90.6368 316.221 90.6368Z" fill="#525282"/>
<path d="M316.221 74.2964C325.103 74.2863 333.775 71.3528 341.106 65.8792C348.436 60.4055 354.084 52.646 357.312 43.6142C355.124 42.0525 353.033 40.3363 351.051 38.4766C348.323 47.619 342.673 55.3851 335.132 60.3559C327.592 65.3268 318.665 67.1705 309.982 65.5504V73.7945C312.049 74.1195 314.134 74.2873 316.221 74.2964Z" fill="#525282"/>
<path d="M316.221 57.9744C323.066 57.9558 329.687 55.3138 334.928 50.5096C340.17 45.7054 343.699 39.0442 344.899 31.6891C341.618 27.5845 338.83 23.0394 336.602 18.1641C337.44 20.7011 337.869 23.3771 337.872 26.0737C337.872 29.7595 337.082 33.3941 335.565 36.6872C334.049 39.9803 331.847 42.8405 329.138 45.0393C326.428 47.2381 323.284 48.7146 319.958 49.3507C316.632 49.9868 313.216 49.765 309.982 48.7029V57.1381C312.029 57.6604 314.12 57.9407 316.221 57.9744Z" fill="#525282"/>
<path d="M336.625 18.2593C336.187 16.8901 335.63 15.5697 334.961 14.3164C335.443 15.6546 336.012 16.9689 336.625 18.2593Z" fill="#525282"/>
<path d="M568.454 84.5938C560.501 84.5916 552.631 86.3478 545.316 89.7565C538.002 93.1652 531.396 98.1558 525.897 104.427C526.458 107.634 527.241 110.789 528.24 113.866C534.82 104.887 543.763 98.324 553.864 95.0623C563.965 91.8005 574.74 91.9961 584.736 95.6229C594.733 99.2497 603.471 106.133 609.773 115.347C616.076 124.56 619.64 135.66 619.987 147.153C622.478 145.444 624.849 143.535 627.08 141.442C625.362 125.782 618.449 111.352 607.647 100.878C596.845 90.4032 582.903 84.6104 568.454 84.5938Z" fill="#525282"/>
<path d="M568.455 100.941C561.182 100.939 554.021 102.901 547.612 106.654C541.202 110.406 535.743 115.832 531.722 122.448C533.018 125.142 534.48 127.737 536.1 130.214C539.943 122.355 546.082 116.124 553.541 112.51C561.001 108.896 569.353 108.107 577.27 110.269C585.187 112.43 592.216 117.417 597.238 124.438C602.261 131.459 604.99 140.111 604.992 149.02C604.987 150.85 604.87 152.678 604.642 154.492C607.298 153.684 609.896 152.661 612.414 151.433C612.414 150.645 612.414 149.832 612.414 149.043C612.391 136.314 607.755 124.112 599.52 115.1C591.284 106.088 580.117 100.998 568.455 100.941Z" fill="#525282"/>
<path d="M568.455 117.262C562.655 117.273 556.99 119.17 552.182 122.711C547.375 126.252 543.643 131.276 541.463 137.143C543.358 139.282 545.384 141.278 547.527 143.117C548.247 140.014 549.538 137.103 551.321 134.562C553.104 132.02 555.342 129.901 557.898 128.333C560.455 126.765 563.277 125.781 566.193 125.441C569.109 125.1 572.058 125.411 574.861 126.353C577.663 127.295 580.261 128.85 582.496 130.923C584.731 132.995 586.557 135.542 587.862 138.409C589.167 141.275 589.924 144.402 590.088 147.598C590.252 150.794 589.818 153.993 588.814 157C591.488 156.999 594.158 156.791 596.804 156.379C597.808 151.701 597.83 146.835 596.867 142.147C595.904 137.458 593.982 133.068 591.244 129.306C588.507 125.543 585.025 122.505 581.059 120.419C577.094 118.333 572.747 117.254 568.346 117.262H568.455Z" fill="#525282"/>
<path d="M641.682 48.0117C629.988 48.0184 618.559 51.8113 608.84 58.9105C599.121 66.0097 591.55 76.0962 587.085 87.8937C589.453 88.768 591.77 89.7974 594.025 90.9762C597.928 80.6843 604.539 71.8863 613.021 65.6937C621.504 59.5012 631.477 56.1919 641.682 56.184C643.767 56.1869 645.851 56.3225 647.921 56.5902V48.3701C645.849 48.1303 643.766 48.0107 641.682 48.0117Z" fill="#525282"/>
<path d="M641.682 64.2383C632.799 64.2535 624.126 67.1917 616.796 72.6695C609.466 78.1472 603.819 85.9098 600.592 94.9442C602.784 96.4981 604.876 98.2147 606.853 100.082C609.549 90.9166 615.193 83.1261 622.742 78.1495C630.291 73.173 639.235 71.3466 647.921 73.008V64.7401C645.855 64.415 643.77 64.2473 641.682 64.2383Z" fill="#525282"/>
<path d="M619.987 147.152L620.491 146.77L619.987 147.128V147.152Z" fill="#525282"/>
<path d="M641.681 80.6758C634.837 80.6859 628.215 83.3254 622.975 88.1315C617.736 92.9377 614.213 99.6038 613.025 106.961C616.25 111.053 619 115.563 621.213 120.39C620.043 116.827 619.676 113.008 620.143 109.257C620.61 105.506 621.897 101.933 623.896 98.8395C625.895 95.746 628.546 93.2232 631.627 91.4841C634.707 89.7451 638.126 88.8409 641.594 88.8481C643.707 88.8522 645.808 89.1902 647.833 89.8517V81.4165C645.812 80.9332 643.75 80.6849 641.681 80.6758Z" fill="#525282"/>
<path d="M621.213 120.395C621.664 121.758 622.221 123.077 622.877 124.337C622.461 122.999 621.892 121.589 621.213 120.395Z" fill="#525282"/>
<path d="M568.674 11.4024C560.721 11.4046 552.85 9.64824 545.536 6.23951C538.222 2.8308 531.616 -2.15964 526.117 -8.43103C526.678 -11.6322 527.468 -14.7802 528.481 -17.846C535.064 -8.87564 544.005 -2.32147 554.103 0.934734C564.2 4.19094 574.969 3.99289 584.96 0.367096C594.952 -3.2587 603.686 -10.1382 609.987 -19.3456C616.289 -28.5529 619.855 -39.6463 620.207 -51.1328C622.697 -49.4321 625.068 -47.5311 627.299 -45.4456C625.582 -29.7862 618.669 -15.3557 607.867 -4.88139C597.065 5.59295 583.123 11.3857 568.674 11.4024Z" fill="#525282"/>
<path d="M641.857 48.012C630.164 47.9986 618.737 44.1999 609.023 37.0965C599.308 29.9932 591.742 19.9042 587.281 8.10608C589.648 7.24815 591.959 6.21824 594.199 5.02344C598.102 15.3179 604.711 24.1193 613.194 30.3159C621.676 36.5126 631.65 39.8266 641.857 39.8395C643.943 39.8421 646.027 39.6985 648.096 39.4094V47.6535C646.023 47.8945 643.941 48.0142 641.857 48.012Z" fill="#525282"/>
<path d="M641.858 31.6634C632.976 31.6533 624.304 28.7199 616.974 23.2462C609.643 17.7726 603.995 10.0132 600.768 0.981387C602.959 -0.574437 605.05 -2.29097 607.028 -4.15625C609.725 5.00905 615.369 12.7995 622.918 17.7761C630.467 22.7526 639.41 24.579 648.097 22.9176V31.1855C646.03 31.5025 643.945 31.6622 641.858 31.6634Z" fill="#525282"/>
<path d="M641.857 15.3436C635.031 15.3291 628.426 12.7032 623.19 7.92254C617.955 3.14186 614.42 -3.49093 613.201 -10.8221C616.471 -14.9399 619.252 -19.4924 621.476 -24.3711C620.639 -21.8341 620.209 -19.1582 620.206 -16.4616C620.207 -12.7758 620.997 -9.14108 622.513 -5.84797C624.03 -2.55487 626.231 0.305319 628.941 2.50415C631.651 4.70298 634.795 6.17945 638.121 6.81556C641.446 7.45166 644.863 7.22984 648.096 6.1677V14.6028C646.047 15.0929 643.955 15.3413 641.857 15.3436Z" fill="#525282"/>
<path d="M474.54 54.0311C466.587 54.0333 458.717 52.2771 451.402 48.8684C444.088 45.4597 437.482 40.4691 431.983 34.1977C432.547 30.9999 433.33 27.8527 434.326 24.7828C440.912 33.7491 449.855 40.2994 459.952 43.5531C470.05 46.8068 480.818 46.608 490.809 42.9832C500.8 39.3583 509.535 32.4814 515.839 23.2769C522.143 14.0725 525.715 2.98181 526.073 -8.50391C528.563 -6.80321 530.934 -4.90221 533.166 -2.81671C531.448 12.8427 524.535 27.273 513.733 37.7474C502.931 48.2217 488.989 54.0145 474.54 54.0311Z" fill="#525282"/>
<path d="M474.54 37.7149C467.267 37.7176 460.106 35.755 453.697 32.0025C447.287 28.25 441.828 22.8241 437.807 16.2088C439.098 13.5114 440.561 10.9163 442.185 8.44267C446.028 16.3013 452.167 22.5325 459.626 26.1463C467.086 29.76 475.438 30.5489 483.355 28.3877C491.272 26.2265 498.3 21.2392 503.323 14.2181C508.346 7.197 511.075 -1.45503 511.077 -10.3632C511.083 -12.2021 510.966 -14.0391 510.727 -15.8594C513.383 -15.0261 515.986 -14.0043 518.52 -12.8007C518.52 -11.9882 518.52 -11.1757 518.52 -10.4111C518.509 2.32818 513.875 14.5438 505.633 23.563C497.391 32.5822 486.211 37.6707 474.54 37.7149Z" fill="#525282"/>
<path d="M474.541 21.3675C468.743 21.3618 463.078 19.4697 458.27 15.9326C453.462 12.3956 449.73 7.37422 447.549 1.51016C449.438 -0.643232 451.464 -2.64757 453.613 -4.48769C454.923 1.08621 458.053 5.94598 462.415 9.17811C466.776 12.4102 472.069 13.7922 477.299 13.0644C482.528 12.3365 487.334 9.54904 490.813 5.22564C494.292 0.902229 496.205 -4.65936 496.192 -10.4138C496.192 -13.1284 495.755 -15.8219 494.9 -18.3711C497.574 -18.3508 500.243 -18.1352 502.89 -17.7259C503.908 -13.0476 503.939 -8.17814 502.981 -3.48484C502.024 1.20847 500.102 5.60304 497.362 9.36757C494.621 13.1321 491.133 16.1682 487.161 18.2469C483.189 20.3256 478.836 21.3926 474.432 21.3675H474.541Z" fill="#525282"/>
<path d="M547.789 90.6368C536.096 90.6235 524.67 86.8249 514.955 79.7216C505.241 72.6182 497.674 62.5291 493.214 50.7309C495.58 49.873 497.891 48.8432 500.132 47.6484C504.034 57.9429 510.644 66.7442 519.126 72.9408C527.608 79.1374 537.583 82.4516 547.789 82.4645C549.875 82.4552 551.958 82.3116 554.028 82.0344V90.2785C551.97 90.5174 549.891 90.6368 547.789 90.6368Z" fill="#525282"/>
<path d="M547.789 74.2964C538.908 74.2863 530.236 71.3528 522.905 65.8792C515.575 60.4055 509.927 52.646 506.699 43.6142C508.887 42.0525 510.978 40.3363 512.96 38.4766C515.688 47.619 521.338 55.3851 528.879 60.3559C536.419 65.3268 545.346 67.1705 554.028 65.5504V73.7945C551.962 74.1195 549.877 74.2873 547.789 74.2964Z" fill="#525282"/>
<path d="M547.79 57.9744C540.947 57.9596 534.327 55.3183 529.088 50.513C523.849 45.7076 520.326 39.0443 519.134 31.6891C522.408 27.5838 525.189 23.0386 527.409 18.1641C526.571 20.7011 526.142 23.3771 526.139 26.0737C526.139 29.7595 526.929 33.3941 528.446 36.6872C529.962 39.9803 532.164 42.8405 534.874 45.0393C537.584 47.2381 540.727 48.7146 544.053 49.3507C547.379 49.9868 550.795 49.765 554.029 48.7029V57.1381C551.983 57.6604 549.891 57.9407 547.79 57.9744Z" fill="#525282"/>
<path d="M527.408 18.2593C527.855 16.8941 528.412 15.5747 529.072 14.3164C528.568 15.6546 527.999 16.9689 527.408 18.2593Z" fill="#525282"/>
<path d="M727.561 84.5938C735.514 84.5916 743.385 86.3478 750.699 89.7565C758.014 93.1652 764.619 98.1558 770.118 104.427C769.557 107.634 768.774 110.789 767.776 113.866C761.205 104.85 752.256 98.2546 742.139 94.9704C732.023 91.6862 721.226 91.872 711.209 95.5027C701.193 99.1335 692.439 106.034 686.131 115.271C679.824 124.509 676.267 135.637 675.941 147.153C673.45 145.444 671.08 143.535 668.849 141.442C670.568 125.766 677.494 111.322 688.314 100.846C699.134 90.3694 713.098 84.587 727.561 84.5938Z" fill="#525282"/>
<path d="M727.561 100.941C734.835 100.939 741.996 102.901 748.405 106.654C754.815 110.406 760.274 115.832 764.295 122.448C762.999 125.142 761.537 127.737 759.917 130.214C756.074 122.355 749.935 116.124 742.475 112.51C735.016 108.896 726.664 108.107 718.747 110.269C710.83 112.43 703.801 117.417 698.779 124.438C693.756 131.459 691.027 140.111 691.025 149.02C691.03 150.85 691.147 152.678 691.375 154.492C688.719 153.684 686.121 152.661 683.604 151.433C683.604 150.645 683.604 149.832 683.604 149.043C683.627 136.314 688.262 124.112 696.497 115.1C704.733 106.088 715.9 100.998 727.561 100.941Z" fill="#525282"/>
<path d="M727.562 117.262C733.362 117.272 739.027 119.169 743.835 122.711C748.642 126.252 752.374 131.276 754.554 137.143C752.659 139.282 750.633 141.278 748.49 143.117C747.77 140.014 746.479 137.103 744.696 134.562C742.913 132.02 740.675 129.901 738.118 128.333C735.562 126.765 732.74 125.781 729.824 125.441C726.908 125.1 723.959 125.411 721.156 126.353C718.354 127.295 715.756 128.85 713.521 130.923C711.286 132.995 709.46 135.542 708.155 138.409C706.85 141.275 706.092 144.402 705.929 147.598C705.765 150.794 706.198 153.993 707.203 157C704.529 156.999 701.859 156.791 699.212 156.379C698.211 151.711 698.187 146.856 699.144 142.176C700.101 137.496 702.013 133.113 704.739 129.352C707.464 125.592 710.932 122.552 714.884 120.458C718.835 118.365 723.169 117.272 727.562 117.262Z" fill="#525282"/>
<path d="M654.335 48.0117C666.029 48.0184 677.458 51.8113 687.177 58.9105C696.896 66.0097 704.467 76.0962 708.932 87.8937C706.564 88.768 704.247 89.7974 701.992 90.9762C698.089 80.6843 691.478 71.8863 682.996 65.6937C674.513 59.5012 664.54 56.1919 654.335 56.184C652.25 56.1869 650.166 56.3225 648.096 56.5902V48.3701C650.168 48.1303 652.251 48.0107 654.335 48.0117Z" fill="#525282"/>
<path d="M654.335 64.2383C663.219 64.2535 671.892 67.1917 679.222 72.6695C686.552 78.1472 692.199 85.9098 695.426 94.9442C693.203 96.4944 691.082 98.2111 689.077 100.082C686.381 90.9166 680.737 83.1261 673.188 78.1495C665.639 73.173 656.695 71.3466 648.009 73.008V64.7401C650.104 64.4106 652.218 64.2428 654.335 64.2383Z" fill="#525282"/>
<path d="M675.942 147.152L675.438 146.77L675.942 147.128V147.152Z" fill="#525282"/>
<path d="M654.335 80.6758C661.18 80.6897 667.803 83.33 673.046 88.135C678.288 92.9401 681.816 99.6039 683.013 106.961C679.735 111.078 676.948 115.63 674.716 120.51C675.886 116.946 676.253 113.128 675.786 109.377C675.319 105.626 674.031 102.052 672.033 98.959C670.034 95.8655 667.382 93.3426 664.302 91.6036C661.221 89.8645 657.803 88.9603 654.335 88.9675C652.222 88.9716 650.12 89.3098 648.096 89.9712V81.536C650.141 81.0057 652.233 80.7173 654.335 80.6758Z" fill="#525282"/>
<path d="M674.716 120.395C674.273 121.762 673.716 123.082 673.052 124.337C673.555 122.999 674.124 121.589 674.716 120.395Z" fill="#525282"/>
<path d="M727.386 11.4024C735.339 11.4046 743.21 9.64824 750.524 6.23951C757.838 2.8308 764.444 -2.15964 769.943 -8.43103C769.379 -11.6289 768.596 -14.7761 767.601 -17.846C761.012 -8.90269 752.075 -2.37321 741.989 0.866333C731.903 4.10588 721.151 3.90041 711.174 0.277546C701.198 -3.34532 692.476 -10.2122 686.178 -19.4017C679.881 -28.5912 676.308 -39.6636 675.941 -51.1328C673.451 -49.4321 671.08 -47.5311 668.849 -45.4456C670.565 -29.8025 677.465 -15.3852 688.248 -4.91304C699.032 5.55912 712.953 11.3624 727.386 11.4024Z" fill="#525282"/>
<path d="M654.16 48.012C665.86 48.0081 677.296 44.2138 687.02 37.1098C696.743 30.0058 704.316 19.9118 708.779 8.10608C706.413 7.24815 704.102 6.21824 701.862 5.02344C697.959 15.3179 691.349 24.1193 682.867 30.3159C674.385 36.5126 664.411 39.8266 654.204 39.8395C652.118 39.8421 650.034 39.6985 647.965 39.4094V47.6535C650.023 47.8928 652.091 48.0125 654.16 48.012Z" fill="#525282"/>
<path d="M654.16 31.6634C663.041 31.6533 671.714 28.7199 679.044 23.2462C686.375 17.7726 692.023 10.0132 695.25 0.981387C693.059 -0.574437 690.967 -2.29097 688.989 -4.15625C686.293 5.00905 680.649 12.7995 673.1 17.7761C665.551 22.7526 656.607 24.579 647.921 22.9176V31.1855C649.988 31.5025 652.073 31.6622 654.16 31.6634Z" fill="#525282"/>
<path d="M654.16 15.3436C660.986 15.3291 667.591 12.7032 672.827 7.92254C678.062 3.14186 681.597 -3.49093 682.816 -10.8221C679.546 -14.9399 676.765 -19.4924 674.541 -24.3711C675.378 -21.8341 675.808 -19.1582 675.811 -16.4616C675.81 -12.7758 675.02 -9.14108 673.504 -5.84797C671.987 -2.55487 669.786 0.305319 667.076 2.50415C664.366 4.70298 661.222 6.17945 657.896 6.81556C654.57 7.45166 651.154 7.22984 647.921 6.1677V14.6028C649.97 15.0929 652.062 15.3413 654.16 15.3436Z" fill="#525282"/>
<path d="M821.454 54.0311C829.407 54.0333 837.278 52.2771 844.592 48.8684C851.906 45.4597 858.512 40.4691 864.011 34.1977C863.447 30.9999 862.664 27.8527 861.669 24.7828C855.083 33.7491 846.14 40.2994 836.042 43.5531C825.945 46.8068 815.176 46.608 805.185 42.9832C795.194 39.3583 786.46 32.4814 780.156 23.2769C773.851 14.0725 770.28 2.98181 769.922 -8.50391C767.431 -6.80321 765.061 -4.90221 762.829 -2.81671C764.547 12.8427 771.46 27.273 782.262 37.7474C793.063 48.2217 807.006 54.0145 821.454 54.0311Z" fill="#525282"/>
<path d="M821.454 37.7149C828.727 37.7176 835.888 35.755 842.297 32.0025C848.707 28.25 854.166 22.8241 858.187 16.2088C856.896 13.5114 855.433 10.9163 853.809 8.44267C849.966 16.3013 843.827 22.5325 836.368 26.1463C828.908 29.76 820.556 30.5489 812.639 28.3877C804.722 26.2265 797.693 21.2392 792.671 14.2181C787.648 7.197 784.919 -1.45503 784.917 -10.3632C784.911 -12.2021 785.028 -14.0391 785.267 -15.8594C782.611 -15.0261 780.008 -14.0043 777.474 -12.8007C777.474 -11.9882 777.474 -11.1757 777.474 -10.4111C777.485 2.32818 782.119 14.5438 790.361 23.563C798.603 32.5822 809.783 37.6707 821.454 37.7149Z" fill="#525282"/>
<path d="M821.455 21.3675C827.253 21.3618 832.917 19.4697 837.725 15.9326C842.533 12.3956 846.266 7.37422 848.447 1.51016C846.558 -0.643232 844.532 -2.64757 842.383 -4.48769C841.073 1.08621 837.943 5.94598 833.581 9.17811C829.22 12.4102 823.927 13.7922 818.697 13.0644C813.468 12.3365 808.662 9.54904 805.183 5.22564C801.704 0.902229 799.791 -4.65936 799.804 -10.4138C799.804 -13.1284 800.241 -15.8219 801.096 -18.3711C798.422 -18.3508 795.753 -18.1352 793.105 -17.7259C792.088 -13.0476 792.057 -8.17814 793.014 -3.48484C793.972 1.20847 795.894 5.60304 798.634 9.36757C801.375 13.1321 804.862 16.1682 808.834 18.2469C812.807 20.3256 817.159 21.3926 821.564 21.3675H821.455Z" fill="#525282"/>
<path d="M748.183 90.6368C759.902 90.6566 771.362 86.8736 781.107 79.7681C790.852 72.6626 798.441 62.5554 802.912 50.7309C800.546 49.873 798.235 48.8432 795.994 47.6484C792.082 57.9693 785.448 66.7886 776.936 72.9873C768.424 79.186 758.416 82.4847 748.183 82.4645C746.098 82.4552 744.014 82.3116 741.944 82.0344V90.2785C744.046 90.5174 746.126 90.6368 748.183 90.6368Z" fill="#525282"/>
<path d="M748.183 74.2964C757.065 74.2863 765.737 71.3528 773.068 65.8792C780.398 60.4055 786.046 52.646 789.274 43.6142C787.086 42.0525 784.995 40.3363 783.013 38.4766C780.285 47.619 774.635 55.3851 767.094 60.3559C759.554 65.3268 750.627 67.1705 741.944 65.5504V73.7945C744.011 74.1195 746.096 74.2873 748.183 74.2964Z" fill="#525282"/>
<path d="M748.183 57.9744C755.026 57.9596 761.646 55.3183 766.885 50.513C772.124 45.7076 775.647 39.0443 776.839 31.6891C773.565 27.5838 770.784 23.0386 768.564 18.1641C769.402 20.7011 769.831 23.3771 769.834 26.0737C769.834 29.7595 769.044 33.3941 767.527 36.6872C766.011 39.9803 763.809 42.8405 761.099 45.0393C758.389 47.2381 755.246 48.7146 751.92 49.3507C748.594 49.9868 745.178 49.765 741.944 48.7029V57.1381C743.991 57.6604 746.082 57.9407 748.183 57.9744Z" fill="#525282"/>
<path d="M768.608 18.2593C768.161 16.8941 767.604 15.5747 766.944 14.3164C767.448 15.6546 768.017 16.9689 768.608 18.2593Z" fill="#525282"/>
<path d="M1000.44 84.5938C992.489 84.5907 984.621 86.3466 977.31 89.7555C969.999 93.1643 963.397 98.1554 957.903 104.427C958.454 107.636 959.237 110.792 960.246 113.866C966.828 104.896 975.769 98.3414 985.867 95.0852C995.964 91.829 1006.73 92.0272 1016.72 95.653C1026.72 99.2788 1035.45 106.158 1041.75 115.365C1048.05 124.573 1051.62 135.666 1051.97 147.153C1054.47 145.444 1056.85 143.535 1059.09 141.442C1057.37 125.778 1050.45 111.345 1039.64 100.87C1028.84 90.3948 1014.89 84.6046 1000.44 84.5938Z" fill="#525282"/>
<path d="M1000.44 100.941C993.167 100.945 986.008 102.91 979.599 106.662C973.191 110.414 967.731 115.837 963.705 122.448C965.01 125.137 966.472 127.731 968.083 130.214C971.882 122.249 978.027 115.913 985.529 112.228C993.03 108.543 1001.45 107.724 1009.43 109.902C1017.41 112.08 1024.49 117.13 1029.52 124.235C1034.54 131.341 1037.23 140.089 1037.15 149.067C1037.15 150.898 1037.03 152.726 1036.8 154.539C1039.46 153.728 1042.05 152.706 1044.57 151.481C1044.57 150.692 1044.57 149.88 1044.57 149.091C1044.56 136.321 1039.91 124.078 1031.63 115.05C1023.36 106.022 1012.14 100.948 1000.44 100.941Z" fill="#525282"/>
<path d="M1000.44 117.262C994.639 117.273 988.973 119.169 984.166 122.711C979.358 126.252 975.626 131.276 973.446 137.143C975.346 139.277 977.372 141.272 979.51 143.117C980.255 140.043 981.562 137.165 983.351 134.655C985.14 132.146 987.376 130.057 989.923 128.514C992.47 126.971 995.276 126.005 998.174 125.675C1001.07 125.345 1004 125.657 1006.78 126.592C1009.57 127.528 1012.15 129.068 1014.38 131.12C1016.6 133.172 1018.42 135.694 1019.73 138.533C1021.05 141.373 1021.82 144.473 1022 147.646C1022.19 150.819 1021.79 154.001 1020.82 157C1023.49 156.999 1026.15 156.791 1028.79 156.379C1029.8 151.709 1029.84 146.849 1028.88 142.164C1027.93 137.478 1026.02 133.089 1023.29 129.325C1020.57 125.561 1017.09 122.521 1013.13 120.431C1009.18 118.342 1004.84 117.258 1000.44 117.262Z" fill="#525282"/>
<path d="M1073.69 48.0117C1061.99 48.0184 1050.56 51.8113 1040.84 58.9105C1031.13 66.0097 1023.56 76.0962 1019.09 87.8937C1021.45 88.7681 1023.76 89.7975 1026.01 90.9762C1029.92 80.6843 1036.53 71.8871 1045.02 65.6951C1053.5 59.503 1063.48 56.1935 1073.69 56.184C1075.76 56.1862 1077.84 56.3218 1079.9 56.5902V48.3701C1077.84 48.1296 1075.76 48.0101 1073.69 48.0117Z" fill="#525282"/>
<path d="M1073.69 64.2383C1064.8 64.2502 1056.13 67.1872 1048.8 72.6654C1041.47 78.1435 1035.82 85.9079 1032.6 94.9442C1034.79 96.5037 1036.88 98.2201 1038.86 100.082C1041.24 92.0462 1045.9 85.041 1052.15 80.0702C1058.41 75.0994 1065.95 72.4181 1073.69 72.4106C1075.77 72.4144 1077.85 72.6142 1079.9 73.008V64.7401C1077.84 64.416 1075.77 64.2483 1073.69 64.2383Z" fill="#525282"/>
<path d="M1051.97 147.152L1052.47 146.77L1051.97 147.128V147.152Z" fill="#525282"/>
<path d="M1073.69 80.6758C1066.84 80.6897 1060.22 83.33 1054.98 88.135C1049.73 92.9401 1046.21 99.6039 1045.01 106.961C1048.28 111.084 1051.07 115.635 1053.31 120.51C1051.96 116.397 1051.69 111.958 1052.52 107.687C1053.35 103.415 1055.25 99.4785 1058 96.314C1060.76 93.1495 1064.27 90.8813 1068.13 89.7615C1072 88.6418 1076.07 88.7144 1079.9 89.9712V81.536C1077.87 81.0057 1075.78 80.7173 1073.69 80.6758Z" fill="#525282"/>
<path d="M1053.31 120.395C1053.74 121.766 1054.3 123.087 1054.97 124.337C1054.45 122.999 1053.9 121.589 1053.31 120.395Z" fill="#525282"/>
<path d="M1000.64 11.4024C992.682 11.4046 984.811 9.64824 977.497 6.23951C970.183 2.8308 963.577 -2.15964 958.078 -8.43103C958.642 -11.6289 959.425 -14.7761 960.421 -17.846C967 -8.8666 975.943 -2.30414 986.045 0.957634C996.146 4.21941 1006.92 4.02377 1016.92 0.396996C1026.91 -3.22978 1035.65 -10.1134 1041.95 -19.3267C1048.26 -28.5401 1051.82 -39.6405 1052.17 -51.1328C1054.66 -49.4321 1057.03 -47.5311 1059.26 -45.4456C1057.54 -29.7862 1050.63 -15.3557 1039.83 -4.88139C1029.03 5.59295 1015.08 11.3857 1000.64 11.4024Z" fill="#525282"/>
<path d="M1073.86 48.012C1062.17 48.0034 1050.74 44.2069 1041.02 37.1033C1031.3 29.9996 1023.73 19.908 1019.27 8.10608C1021.64 7.2528 1023.96 6.22278 1026.21 5.02344C1030.11 15.3198 1036.71 24.1228 1045.2 30.3199C1053.68 36.5169 1063.66 39.8297 1073.86 39.8395C1075.95 39.8406 1078.03 39.697 1080.1 39.4094V47.6535C1078.03 47.8933 1075.95 48.013 1073.86 48.012Z" fill="#525282"/>
<path d="M1073.86 31.6634C1064.98 31.6533 1056.31 28.7199 1048.98 23.2462C1041.65 17.7726 1036 10.0132 1032.77 0.981387C1034.96 -0.580301 1037.05 -2.29655 1039.03 -4.15625C1041.73 5.00905 1047.37 12.7995 1054.92 17.7761C1062.47 22.7526 1071.42 24.579 1080.1 22.9176V31.1855C1078.03 31.5025 1075.95 31.6622 1073.86 31.6634Z" fill="#525282"/>
<path d="M1073.86 15.3436C1067.04 15.3291 1060.43 12.7032 1055.2 7.92254C1049.96 3.14186 1046.42 -3.49093 1045.21 -10.8221C1048.47 -14.9459 1051.25 -19.4973 1053.48 -24.3711C1052.64 -21.8341 1052.21 -19.1582 1052.21 -16.4616C1052.21 -12.7758 1053 -9.14108 1054.52 -5.84797C1056.03 -2.55487 1058.24 0.305319 1060.95 2.50415C1063.66 4.70298 1066.8 6.17945 1070.13 6.81556C1073.45 7.45166 1076.87 7.22984 1080.1 6.1677V14.6028C1078.05 15.0929 1075.96 15.3413 1073.86 15.3436Z" fill="#525282"/>
<path d="M906.569 54.0311C898.616 54.0333 890.745 52.2771 883.431 48.8684C876.117 45.4597 869.511 40.4691 864.012 34.1977C864.576 30.9999 865.359 27.8527 866.354 24.7828C872.94 33.7491 881.883 40.2994 891.981 43.5531C902.078 46.8068 912.847 46.608 922.838 42.9832C932.829 39.3583 941.563 32.4814 947.867 23.2769C954.172 14.0725 957.743 2.98181 958.101 -8.50391C960.592 -6.80321 962.962 -4.90221 965.194 -2.81671C963.476 12.8427 956.563 27.273 945.761 37.7474C934.96 48.2217 921.017 54.0145 906.569 54.0311Z" fill="#525282"/>
<path d="M906.569 37.7149C899.295 37.7176 892.135 35.755 885.725 32.0025C879.315 28.25 873.856 22.8241 869.835 16.2088C871.126 13.5114 872.589 10.9163 874.213 8.44267C878.056 16.3013 884.195 22.5325 891.655 26.1463C899.114 29.76 907.466 30.5489 915.383 28.3877C923.3 26.2265 930.329 21.2392 935.352 14.2181C940.375 7.197 943.104 -1.45503 943.106 -10.3632C943.1 -12.2017 942.983 -14.0378 942.755 -15.8594C945.405 -15.03 948.002 -14.0081 950.527 -12.8007C950.527 -11.9882 950.527 -11.1917 950.527 -10.4111C950.51 2.32213 945.877 14.5305 937.641 23.5477C929.404 32.5649 918.234 37.6581 906.569 37.7149Z" fill="#525282"/>
<path d="M906.568 21.3675C900.763 21.3713 895.088 19.4835 890.272 15.9459C885.455 12.4082 881.716 7.38176 879.532 1.51016C881.421 -0.643234 883.447 -2.64757 885.596 -4.48769C886.316 -1.38467 887.607 1.52612 889.39 4.0676C891.173 6.60908 893.411 8.72818 895.968 10.2962C898.524 11.8642 901.347 12.8483 904.263 13.1886C907.178 13.529 910.127 13.2186 912.93 12.2762C915.733 11.3338 918.33 9.77911 920.565 7.70665C922.8 5.63419 924.626 3.08716 925.931 0.220572C927.236 -2.64602 927.994 -5.77234 928.157 -8.96843C928.321 -12.1645 927.888 -15.3636 926.883 -18.3711C929.557 -18.35 932.226 -18.1344 934.874 -17.7259C935.872 -13.0591 935.892 -8.20665 934.933 -3.53005C933.975 1.14655 932.062 5.52676 929.337 9.28429C926.612 13.0418 923.146 16.0797 919.196 18.1718C915.246 20.2639 910.915 21.3563 906.524 21.3675H906.568Z" fill="#525282"/>
<path d="M979.795 90.6368C968.098 90.6282 956.667 86.8318 946.948 79.7281C937.229 72.6244 929.659 62.5329 925.197 50.7309C927.572 49.8777 929.891 48.8478 932.137 47.6484C936.04 57.9429 942.649 66.7442 951.132 72.9408C959.614 79.1374 969.588 82.4516 979.795 82.4645C981.88 82.4537 983.963 82.3101 986.034 82.0344V90.2785C983.976 90.5174 981.896 90.6368 979.795 90.6368Z" fill="#525282"/>
<path d="M979.795 74.2964C970.902 74.3007 962.215 71.3739 954.872 65.8993C947.528 60.4247 941.87 52.6574 938.639 43.6142C940.826 42.0525 942.917 40.3363 944.9 38.4766C947.628 47.619 953.278 55.3851 960.818 60.3559C968.358 65.3268 977.285 67.1705 985.968 65.5504V73.7945C983.923 74.1162 981.86 74.2839 979.795 74.2964Z" fill="#525282"/>
<path d="M979.795 57.9744C972.951 57.9558 966.33 55.3138 961.088 50.5096C955.847 45.7054 952.318 39.0442 951.117 31.6891C954.399 27.5845 957.187 23.0394 959.414 18.1641C958.577 20.7011 958.147 23.3771 958.144 26.0737C958.144 29.7595 958.934 33.3941 960.451 36.6872C961.968 39.9803 964.169 42.8405 966.879 45.0393C969.589 47.2381 972.732 48.7146 976.058 49.3507C979.384 49.9868 982.801 49.765 986.034 48.7029V57.1381C983.988 57.6604 981.896 57.9407 979.795 57.9744Z" fill="#525282"/>
<path d="M959.414 18.2593C959.861 16.8941 960.418 15.5747 961.078 14.3164C960.531 15.6546 960.005 16.9689 959.414 18.2593Z" fill="#525282"/>
<path d="M1159.57 84.5938C1167.52 84.5916 1175.39 86.3478 1182.71 89.7565C1190.02 93.1652 1196.63 98.1558 1202.12 104.427C1201.56 107.634 1200.78 110.789 1199.78 113.866C1193.2 104.887 1184.26 98.324 1174.16 95.0623C1164.06 91.8005 1153.28 91.9961 1143.29 95.6229C1133.29 99.2497 1124.55 106.133 1118.25 115.347C1111.95 124.56 1108.38 135.66 1108.04 147.153C1105.54 145.444 1103.17 143.535 1100.94 141.442C1102.66 125.782 1109.57 111.352 1120.37 100.878C1131.18 90.4032 1145.12 84.6104 1159.57 84.5938Z" fill="#525282"/>
<path d="M1159.57 100.941C1166.84 100.939 1174 102.901 1180.41 106.654C1186.82 110.406 1192.28 115.832 1196.3 122.448C1195.01 125.142 1193.54 127.737 1191.92 130.214C1188.08 122.355 1181.94 116.124 1174.48 112.51C1167.02 108.896 1158.67 108.107 1150.75 110.269C1142.84 112.43 1135.81 117.417 1130.78 124.438C1125.76 131.459 1123.03 140.111 1123.03 149.02C1123.03 150.85 1123.14 152.679 1123.38 154.492C1120.72 153.68 1118.11 152.658 1115.59 151.433C1115.59 150.645 1115.59 149.832 1115.59 149.043C1115.61 136.308 1120.24 124.099 1128.48 115.085C1136.72 106.071 1147.9 100.986 1159.57 100.941Z" fill="#525282"/>
<path d="M1159.57 117.262C1165.37 117.273 1171.03 119.169 1175.84 122.711C1180.65 126.252 1184.38 131.276 1186.56 137.143C1184.67 139.282 1182.64 141.278 1180.5 143.117C1179.24 137.472 1176.12 132.53 1171.74 129.237C1167.36 125.944 1162.01 124.53 1156.73 125.266C1151.46 126.003 1146.61 128.838 1143.13 133.229C1139.64 137.62 1137.77 143.259 1137.85 149.067C1137.85 151.774 1138.29 154.459 1139.14 157C1136.47 157 1133.8 156.792 1131.15 156.379C1130.14 151.709 1130.1 146.849 1131.06 142.164C1132.01 137.478 1133.92 133.089 1136.65 129.325C1139.38 125.561 1142.85 122.521 1146.81 120.431C1150.76 118.342 1155.11 117.258 1159.5 117.262H1159.57Z" fill="#525282"/>
<path d="M1086.34 48.0117C1098.03 48.0231 1109.46 51.8181 1119.17 58.9171C1128.88 66.016 1136.45 76.1 1140.92 87.8937C1138.56 88.7723 1136.25 89.8016 1134 90.9762C1130.09 80.6843 1123.48 71.8863 1115 65.6937C1106.52 59.5012 1096.55 56.1919 1086.34 56.184C1084.26 56.1855 1082.17 56.3211 1080.1 56.5902V48.3701C1082.17 48.1303 1084.26 48.0107 1086.34 48.0117Z" fill="#525282"/>
<path d="M1086.34 64.2383C1095.22 64.2535 1103.9 67.1917 1111.23 72.6695C1118.56 78.1472 1124.2 85.9098 1127.43 94.9442C1125.24 96.4981 1123.15 98.2147 1121.17 100.082C1118.47 90.9166 1112.83 83.1261 1105.28 78.1495C1097.73 73.173 1088.79 71.3466 1080.1 73.008V64.7401C1082.17 64.415 1084.25 64.2473 1086.34 64.2383Z" fill="#525282"/>
<path d="M1108.03 147.152L1107.53 146.77L1108.03 147.128V147.152Z" fill="#525282"/>
<path d="M1086.34 80.6758C1093.18 80.6906 1099.8 83.3319 1105.04 88.1372C1110.28 92.9426 1113.8 99.6059 1115 106.961C1111.73 111.079 1108.95 115.631 1106.72 120.51C1108.07 116.395 1108.34 111.953 1107.51 107.678C1106.68 103.404 1104.78 99.4644 1102.02 96.2989C1099.26 93.1334 1095.75 90.8659 1091.88 89.7487C1088.01 88.6315 1083.93 88.7086 1080.1 89.9712V81.536C1082.15 81.0057 1084.24 80.7173 1086.34 80.6758Z" fill="#525282"/>
<path d="M1106.72 120.395C1106.27 121.758 1105.71 123.077 1105.06 124.337C1105.56 122.999 1106.13 121.589 1106.72 120.395Z" fill="#525282"/>
<path d="M1159.39 11.4024C1167.34 11.4055 1175.21 9.64955 1182.52 6.24068C1189.83 2.83181 1196.43 -2.15923 1201.93 -8.43103C1201.36 -11.6289 1200.58 -14.7761 1199.58 -17.846C1193 -8.87564 1184.06 -2.32147 1173.96 0.934734C1163.87 4.19094 1153.1 3.99289 1143.11 0.367096C1133.11 -3.2587 1124.38 -10.1382 1118.08 -19.3456C1111.78 -28.5529 1108.21 -39.6463 1107.86 -51.1328C1105.36 -49.4325 1102.98 -47.5315 1100.75 -45.4456C1102.46 -29.7821 1109.38 -15.3484 1120.19 -4.87351C1130.99 5.60137 1144.94 11.3916 1159.39 11.4024Z" fill="#525282"/>
<path d="M1086.14 48.012C1097.84 48.0034 1109.27 44.2069 1118.99 37.1033C1128.71 29.9996 1136.28 19.908 1140.74 8.10608C1138.37 7.25241 1136.06 6.22239 1133.82 5.02344C1129.92 15.3198 1123.3 24.122 1114.82 30.3186C1106.33 36.5151 1096.35 39.8281 1086.14 39.8395C1084.06 39.8406 1081.97 39.697 1079.9 39.4094V47.6535C1081.98 47.8933 1084.06 48.013 1086.14 48.012Z" fill="#525282"/>
<path d="M1086.14 31.6634C1095.03 31.6566 1103.7 28.7245 1111.03 23.2505C1118.36 17.7764 1124.01 10.0151 1127.23 0.981387C1125.05 -0.586207 1122.96 -2.30218 1120.97 -4.15625C1118.28 5.00905 1112.63 12.7995 1105.08 17.7761C1097.53 22.7526 1088.59 24.579 1079.9 22.9176V31.1855C1081.97 31.5008 1084.06 31.6605 1086.14 31.6634Z" fill="#525282"/>
<path d="M1086.14 15.3436C1092.97 15.3301 1099.58 12.7051 1104.82 7.92473C1110.06 3.14437 1113.6 -3.48896 1114.82 -10.8221C1111.55 -14.9453 1108.76 -19.4966 1106.52 -24.3711C1107.69 -20.8075 1108.06 -16.9888 1107.59 -13.2378C1107.13 -9.48676 1105.84 -5.91352 1103.84 -2.82003C1101.84 0.273462 1099.19 2.79633 1096.11 4.53537C1093.03 6.27441 1089.61 7.17846 1086.14 7.17128C1084.03 7.16719 1081.93 6.82919 1079.9 6.1677V14.6028C1081.95 15.0917 1084.05 15.34 1086.14 15.3436Z" fill="#525282"/>
<path d="M1253.46 54.0311C1261.41 54.0319 1269.28 52.2752 1276.6 48.8665C1283.91 45.4579 1290.52 40.468 1296.02 34.1977C1295.46 30.9966 1294.67 27.8486 1293.65 24.7828C1287.07 33.7531 1278.13 40.3074 1268.03 43.5636C1257.93 46.8198 1247.16 46.6216 1237.17 42.9958C1227.18 39.3701 1218.45 32.4907 1212.15 23.2833C1205.85 14.076 1202.28 2.98261 1201.93 -8.50391C1199.43 -6.80362 1197.05 -4.90262 1194.81 -2.81671C1196.53 12.8468 1203.45 27.2804 1214.25 37.7552C1225.06 48.2301 1239.01 54.0203 1253.46 54.0311Z" fill="#525282"/>
<path d="M1253.46 37.7149C1260.73 37.7113 1267.89 35.746 1274.3 31.994C1280.71 28.2421 1286.17 22.8196 1290.19 16.2088C1288.89 13.5164 1287.43 10.9219 1285.82 8.44267C1281.97 16.2941 1275.82 22.5175 1268.36 26.1259C1260.91 29.7342 1252.56 30.5208 1244.64 28.361C1236.73 26.2011 1229.7 21.2184 1224.67 14.2032C1219.65 7.18803 1216.91 -1.45787 1216.9 -10.3632C1216.91 -12.2017 1217.02 -14.0378 1217.25 -15.8594C1214.6 -15.0262 1212.01 -14.0044 1209.48 -12.8007C1209.48 -11.9882 1209.48 -11.1917 1209.48 -10.4111C1209.5 2.32626 1214.13 14.5383 1222.37 23.5562C1230.61 32.574 1241.79 37.6644 1253.46 37.7149Z" fill="#525282"/>
<path d="M1253.46 21.3675C1259.26 21.3618 1264.92 19.4697 1269.73 15.9326C1274.54 12.3956 1278.27 7.37422 1280.45 1.51016C1278.56 -0.637461 1276.53 -2.64142 1274.39 -4.48769C1273.64 -1.41362 1272.34 1.46445 1270.55 3.97382C1268.76 6.4832 1266.52 8.57226 1263.98 10.1155C1261.43 11.6587 1258.62 12.6242 1255.72 12.9544C1252.83 13.2846 1249.9 12.9725 1247.11 12.0367C1244.33 11.101 1241.75 9.56107 1239.52 7.50917C1237.3 5.45728 1235.47 2.93566 1234.16 0.0958729C1232.85 -2.74392 1232.08 -5.84335 1231.89 -9.0167C1231.71 -12.1901 1232.11 -15.3719 1233.08 -18.3711C1230.41 -18.35 1227.75 -18.1344 1225.11 -17.7259C1224.09 -13.0574 1224.06 -8.19854 1225.01 -3.51415C1225.97 1.17023 1227.88 5.55827 1230.6 9.32046C1233.33 13.0827 1236.81 16.1212 1240.77 18.2077C1244.72 20.2942 1249.06 21.3745 1253.46 21.3675Z" fill="#525282"/>
<path d="M1180.21 90.6368C1191.91 90.6282 1203.34 86.8318 1213.06 79.7281C1222.78 72.6244 1230.35 62.5329 1234.81 50.7309C1232.44 49.8773 1230.13 48.8474 1227.89 47.6484C1223.98 57.943 1217.37 66.7433 1208.88 72.9395C1200.4 79.1356 1190.42 82.45 1180.21 82.4645C1178.13 82.4544 1176.06 82.3108 1173.99 82.0344V90.2785C1176.03 90.5174 1178.11 90.6368 1180.21 90.6368Z" fill="#525282"/>
<path d="M1180.21 74.2964C1189.09 74.2896 1197.77 71.3574 1205.1 65.8833C1212.43 60.4092 1218.08 52.6479 1221.3 43.6142C1219.12 42.0466 1217.03 40.3306 1215.04 38.4766C1212.32 47.62 1206.68 55.3887 1199.14 60.3605C1191.6 65.3322 1182.67 67.1746 1173.99 65.5504V73.7945C1176.05 74.1187 1178.13 74.2864 1180.21 74.2964Z" fill="#525282"/>
<path d="M1180.21 57.9744C1187.06 57.9558 1193.68 55.3138 1198.92 50.5096C1204.16 45.7054 1207.69 39.0442 1208.89 31.6891C1205.61 27.5786 1202.83 23.0345 1200.59 18.1641C1201.44 20.698 1201.87 23.376 1201.86 26.0737C1201.87 29.7585 1201.08 33.3929 1199.56 36.6863C1198.05 39.9797 1195.85 42.8405 1193.14 45.0399C1190.43 47.2392 1187.29 48.716 1183.97 49.352C1180.64 49.9881 1177.23 49.7658 1173.99 48.7029V57.1381C1176.03 57.6603 1178.12 57.9407 1180.21 57.9744Z" fill="#525282"/>
<path d="M1200.59 18.2593C1200.16 16.886 1199.61 15.5647 1198.93 14.3164C1199.45 15.6546 1200 16.9689 1200.59 18.2593Z" fill="#525282"/>
<path d="M1432.44 84.5938C1424.49 84.5916 1416.62 86.3478 1409.31 89.7565C1401.99 93.1652 1395.39 98.1558 1389.89 104.427C1390.45 107.634 1391.23 110.789 1392.23 113.866C1398.81 104.887 1407.75 98.324 1417.85 95.0623C1427.95 91.8005 1438.73 91.9961 1448.73 95.6229C1458.72 99.2497 1467.46 106.133 1473.76 115.347C1480.07 124.56 1483.63 135.66 1483.98 147.153C1486.47 145.444 1488.84 143.535 1491.07 141.442C1489.35 125.782 1482.44 111.352 1471.64 100.878C1460.83 90.4032 1446.89 84.6104 1432.44 84.5938Z" fill="#525282"/>
<path d="M1432.44 100.941C1425.17 100.939 1418.01 102.901 1411.6 106.654C1405.19 110.406 1399.73 115.832 1395.71 122.448C1397.01 125.142 1398.47 127.737 1400.09 130.214C1403.93 122.355 1410.07 116.124 1417.53 112.51C1424.99 108.896 1433.34 108.107 1441.26 110.269C1449.18 112.43 1456.2 117.417 1461.23 124.438C1466.25 131.459 1468.98 140.111 1468.98 149.02C1468.99 150.85 1468.87 152.679 1468.63 154.492C1471.29 153.684 1473.9 152.662 1476.42 151.433C1476.42 150.645 1476.42 149.832 1476.42 149.043C1476.41 136.308 1471.77 124.099 1463.53 115.085C1455.29 106.071 1444.11 100.986 1432.44 100.941Z" fill="#525282"/>
<path d="M1432.44 117.262C1426.64 117.273 1420.98 119.17 1416.17 122.711C1411.36 126.252 1407.63 131.277 1405.45 137.143C1407.34 139.274 1409.36 141.262 1411.49 143.093C1412.8 137.518 1415.94 132.656 1420.3 129.424C1424.66 126.192 1429.96 124.812 1435.19 125.543C1440.42 126.274 1445.23 129.066 1448.71 133.394C1452.18 137.721 1454.09 143.287 1454.07 149.043C1454.07 151.75 1453.64 154.436 1452.78 156.977C1455.45 156.976 1458.13 156.769 1460.77 156.356C1461.79 151.686 1461.82 146.826 1460.87 142.141C1459.92 137.455 1458 133.066 1455.28 129.302C1452.55 125.538 1449.08 122.497 1445.12 120.408C1441.16 118.319 1436.82 117.235 1432.42 117.238L1432.44 117.262Z" fill="#525282"/>
<path d="M1505.63 48.0117C1493.94 48.0231 1482.51 51.8181 1472.8 58.9171C1463.08 66.016 1455.52 76.1 1451.05 87.8937C1453.41 88.7723 1455.72 89.8016 1457.97 90.9762C1461.87 80.6843 1468.48 71.8863 1476.97 65.6937C1485.45 59.5012 1495.42 56.1919 1505.63 56.184C1507.71 56.1855 1509.8 56.3211 1511.87 56.5902V48.3701C1509.79 48.1303 1507.71 48.0107 1505.63 48.0117Z" fill="#525282"/>
<path d="M1505.63 64.2383C1496.74 64.2535 1488.07 67.1917 1480.74 72.6695C1473.41 78.1472 1467.76 85.9098 1464.54 94.9442C1466.73 96.4922 1468.83 98.2091 1470.8 100.082C1473.49 90.9166 1479.14 83.1261 1486.69 78.1495C1494.24 73.173 1503.18 71.3466 1511.87 73.008V64.7401C1509.8 64.415 1507.72 64.2473 1505.63 64.2383Z" fill="#525282"/>
<path d="M1483.98 147.152L1484.48 146.77L1483.98 147.128V147.152Z" fill="#525282"/>
<path d="M1505.63 80.6758C1498.78 80.6906 1492.16 83.3319 1486.92 88.1372C1481.69 92.9426 1478.16 99.6059 1476.97 106.961C1480.24 111.079 1483.02 115.631 1485.25 120.51C1483.9 116.395 1483.63 111.953 1484.46 107.678C1485.29 103.404 1487.19 99.4644 1489.95 96.2989C1492.71 93.1334 1496.22 90.8659 1500.09 89.7487C1503.96 88.6315 1508.03 88.7086 1511.87 89.9712V81.536C1509.82 81.0057 1507.73 80.7173 1505.63 80.6758Z" fill="#525282"/>
<path d="M1485.29 120.395C1485.74 121.758 1486.3 123.077 1486.95 124.337C1486.45 122.999 1485.92 121.589 1485.29 120.395Z" fill="#525282"/>
<path d="M1432.62 11.4024C1424.67 11.4055 1416.8 9.64955 1409.49 6.24068C1402.18 2.83181 1395.58 -2.15923 1390.08 -8.43103C1390.65 -11.6289 1391.43 -14.7761 1392.43 -17.846C1399.01 -8.87564 1407.95 -2.32147 1418.05 0.934734C1428.15 4.19094 1438.91 3.99289 1448.91 0.367096C1458.9 -3.2587 1467.63 -10.1382 1473.93 -19.3456C1480.23 -28.5529 1483.8 -39.6463 1484.15 -51.1328C1486.65 -49.4383 1489.03 -47.537 1491.27 -45.4456C1489.55 -29.7821 1482.63 -15.3484 1471.83 -4.87351C1461.02 5.60137 1447.07 11.3916 1432.62 11.4024Z" fill="#525282"/>
<path d="M1505.87 48.012C1494.17 48.0034 1482.74 44.2069 1473.02 37.1033C1463.3 29.9996 1455.73 19.908 1451.27 8.10608C1453.64 7.25241 1455.95 6.22239 1458.19 5.02344C1462.09 15.3198 1468.71 24.122 1477.19 30.3186C1485.68 36.5151 1495.66 39.8281 1505.87 39.8395C1507.95 39.8406 1510.04 39.697 1512.11 39.4094V47.6535C1510.03 47.8933 1507.95 48.013 1505.87 48.012Z" fill="#525282"/>
<path d="M1505.87 31.6634C1496.99 31.6566 1488.31 28.7245 1480.98 23.2505C1473.65 17.7764 1468 10.0151 1464.78 0.981388C1466.96 -0.586206 1469.05 -2.30218 1471.04 -4.15625C1473.74 5.02809 1479.39 12.8331 1486.96 17.8115C1494.53 22.7899 1503.49 24.6041 1512.19 22.9176V31.1855C1510.1 31.5052 1507.98 31.6649 1505.87 31.6634Z" fill="#525282"/>
<path d="M1505.87 15.3436C1499.04 15.3357 1492.42 12.7132 1487.18 7.93232C1481.93 3.15147 1478.39 -3.48493 1477.17 -10.8221C1480.44 -14.9453 1483.22 -19.4966 1485.46 -24.3711C1484.29 -20.8075 1483.93 -16.9888 1484.39 -13.2378C1484.86 -9.48676 1486.15 -5.91352 1488.15 -2.82003C1490.15 0.273462 1492.8 2.79633 1495.88 4.53537C1498.96 6.27441 1502.38 7.17846 1505.85 7.17128C1507.96 7.16719 1510.06 6.82919 1512.08 6.1677V14.6028C1510.04 15.09 1507.96 15.3383 1505.87 15.3436Z" fill="#525282"/>
<path d="M1338.55 54.0311C1330.6 54.0342 1322.73 52.2783 1315.42 48.8694C1308.11 45.4606 1301.51 40.4695 1296.02 34.1977C1296.57 30.9973 1297.35 27.8492 1298.36 24.7828C1304.94 33.7531 1313.88 40.3074 1323.98 43.5636C1334.08 46.8198 1344.85 46.6216 1354.84 42.9958C1364.83 39.3701 1373.56 32.4907 1379.86 23.2833C1386.17 14.076 1389.73 2.98261 1390.08 -8.50391C1392.58 -6.80362 1394.96 -4.90262 1397.2 -2.81671C1395.48 12.8468 1388.56 27.2804 1377.76 37.7552C1366.95 48.2301 1353 54.0203 1338.55 54.0311Z" fill="#525282"/>
<path d="M1338.55 37.7149C1331.28 37.7113 1324.12 35.746 1317.71 31.994C1311.3 28.2421 1305.84 22.8196 1301.82 16.2088C1303.12 13.5166 1304.58 10.9221 1306.2 8.44267C1310.04 16.3013 1316.18 22.5325 1323.64 26.1463C1331.1 29.76 1339.45 30.5489 1347.37 28.3877C1355.28 26.2265 1362.31 21.2392 1367.33 14.2181C1372.36 7.197 1375.09 -1.45503 1375.09 -10.3632C1375.08 -12.2017 1374.97 -14.0378 1374.74 -15.8594C1377.39 -15.0262 1379.98 -14.0044 1382.51 -12.8007C1382.51 -11.9882 1382.51 -11.1917 1382.51 -10.4111C1382.49 2.32213 1377.86 14.5305 1369.62 23.5477C1361.39 32.5649 1350.22 37.6581 1338.55 37.7149Z" fill="#525282"/>
<path d="M1338.55 21.3675C1332.75 21.3618 1327.09 19.4697 1322.28 15.9326C1317.47 12.3956 1313.74 7.37422 1311.56 1.51016C1313.45 -0.637461 1315.48 -2.64142 1317.62 -4.48769C1318.4 -1.45432 1319.73 1.37817 1321.53 3.84285C1323.33 6.30754 1325.56 8.35463 1328.09 9.86345C1330.62 11.3723 1333.41 12.3124 1336.28 12.6283C1339.15 12.9442 1342.05 12.6296 1344.81 11.703C1347.57 10.7764 1350.13 9.25649 1352.34 7.23294C1354.55 5.20939 1356.37 2.72319 1357.69 -0.0794353C1359.01 -2.88206 1359.8 -5.9444 1360.02 -9.08583C1360.23 -12.2273 1359.87 -15.3843 1358.95 -18.3711C1361.62 -18.35 1364.28 -18.1344 1366.92 -17.7259C1367.94 -13.0476 1367.97 -8.17814 1367.01 -3.48484C1366.06 1.20847 1364.13 5.60304 1361.39 9.36757C1358.65 13.1321 1355.17 16.1682 1351.19 18.2469C1347.22 20.3256 1342.87 21.3926 1338.46 21.3675H1338.55Z" fill="#525282"/>
<path d="M1411.8 90.6368C1400.1 90.6282 1388.67 86.8318 1378.95 79.7281C1369.23 72.6244 1361.67 62.5329 1357.2 50.7309C1359.57 49.8773 1361.88 48.8474 1364.12 47.6484C1368.03 57.943 1374.64 66.7433 1383.13 72.9395C1391.61 79.1356 1401.59 82.45 1411.8 82.4645C1413.88 82.4544 1415.95 82.3108 1418.02 82.0344V90.2785C1415.98 90.5174 1413.9 90.6368 1411.8 90.6368Z" fill="#525282"/>
<path d="M1411.8 74.2964C1402.92 74.2896 1394.25 71.3574 1386.91 65.8833C1379.58 60.4092 1373.94 52.6479 1370.71 43.6142C1372.89 42.0466 1374.99 40.3306 1376.97 38.4766C1379.69 47.6295 1385.34 55.4052 1392.89 60.378C1400.44 65.3507 1409.38 67.187 1418.06 65.5504V73.7945C1415.99 74.1209 1413.9 74.2886 1411.8 74.2964Z" fill="#525282"/>
<path d="M1411.8 57.9744C1404.96 57.9558 1398.34 55.3138 1393.09 50.5096C1387.85 45.7054 1384.32 39.0442 1383.12 31.6891C1386.4 27.5786 1389.19 23.0345 1391.42 18.1641C1390.58 20.7011 1390.15 23.3771 1390.15 26.0737C1390.13 29.772 1390.91 33.4234 1392.42 36.7339C1393.93 40.0443 1396.13 42.9209 1398.85 45.1321C1401.56 47.3433 1404.72 48.8271 1408.05 49.4639C1411.39 50.1007 1414.82 49.8728 1418.06 48.7984V57.2336C1416.01 57.7271 1413.91 57.9755 1411.8 57.9744Z" fill="#525282"/>
<path d="M1391.42 18.2593C1391.85 16.886 1392.41 15.5647 1393.08 14.3164C1392.56 15.6546 1392.01 16.9689 1391.42 18.2593Z" fill="#525282"/>
<path d="M1591.57 84.5938C1599.53 84.5929 1607.4 86.3497 1614.71 89.7584C1622.02 93.167 1628.63 98.1569 1634.13 104.427C1633.57 107.637 1632.78 110.793 1631.77 113.866C1625.18 104.896 1616.24 98.3414 1606.14 95.0852C1596.05 91.829 1585.28 92.0272 1575.29 95.653C1565.3 99.2787 1556.56 106.158 1550.26 115.365C1543.96 124.573 1540.39 135.666 1540.04 147.153C1537.54 145.444 1535.16 143.535 1532.93 141.442C1534.64 125.778 1541.56 111.345 1552.37 100.87C1563.17 90.3948 1577.12 84.6046 1591.57 84.5938Z" fill="#525282"/>
<path d="M1591.57 100.941C1598.84 100.945 1606 102.91 1612.41 106.662C1618.82 110.414 1624.28 115.837 1628.31 122.448C1627 125.137 1625.54 127.731 1623.93 130.214C1620.08 122.362 1613.94 116.139 1606.48 112.53C1599.02 108.922 1590.67 108.135 1582.76 110.295C1574.84 112.455 1567.81 117.438 1562.79 124.453C1557.76 131.468 1555.03 140.114 1555.01 149.02C1555.02 150.85 1555.14 152.678 1555.36 154.492C1552.71 153.68 1550.11 152.658 1547.59 151.433C1547.59 150.645 1547.59 149.832 1547.59 149.043C1547.62 136.31 1552.25 124.104 1560.49 115.092C1568.73 106.079 1579.91 100.992 1591.57 100.941Z" fill="#525282"/>
<path d="M1591.57 117.262C1597.37 117.273 1603.04 119.17 1607.84 122.711C1612.65 126.252 1616.38 131.277 1618.56 137.143C1616.66 139.277 1614.64 141.272 1612.5 143.117C1611.85 139.935 1610.61 136.935 1608.84 134.304C1607.08 131.674 1604.83 129.471 1602.25 127.834C1599.67 126.197 1596.8 125.162 1593.84 124.793C1590.87 124.424 1587.86 124.73 1585.01 125.692C1582.16 126.654 1579.52 128.25 1577.25 130.38C1574.99 132.51 1573.16 135.129 1571.87 138.07C1570.59 141.011 1569.87 144.212 1569.77 147.47C1569.67 150.728 1570.19 153.973 1571.3 157.001C1568.63 156.999 1565.97 156.792 1563.33 156.379C1562.32 151.7 1562.28 146.829 1563.24 142.135C1564.2 137.441 1566.12 133.045 1568.86 129.279C1571.6 125.512 1575.09 122.474 1579.06 120.393C1583.03 118.311 1587.39 117.241 1591.79 117.262H1591.57Z" fill="#525282"/>
<path d="M1518.32 48.0117C1530.02 48.0184 1541.45 51.8113 1551.17 58.9105C1560.88 66.0097 1568.46 76.0962 1572.92 87.8937C1570.56 88.7681 1568.25 89.7975 1566 90.9762C1562.09 80.6843 1555.48 71.8871 1546.99 65.6951C1538.51 59.503 1528.53 56.1935 1518.32 56.184C1516.25 56.1862 1514.17 56.3218 1512.11 56.5902V48.3701C1514.17 48.1296 1516.25 48.0101 1518.32 48.0117Z" fill="#525282"/>
<path d="M1518.32 64.2383C1527.21 64.2502 1535.88 67.1872 1543.21 72.6654C1550.54 78.1435 1556.19 85.9079 1559.41 94.9442C1557.23 96.5037 1555.13 98.2201 1553.15 100.082C1550.77 92.0462 1546.11 85.041 1539.86 80.0702C1533.6 75.0994 1526.06 72.4181 1518.32 72.4106C1516.24 72.4144 1514.16 72.6142 1512.11 73.008V64.7401C1514.17 64.416 1516.24 64.2483 1518.32 64.2383Z" fill="#525282"/>
<path d="M1540.04 147.152L1539.54 146.77L1540.04 147.128V147.152Z" fill="#525282"/>
<path d="M1518.32 80.6758C1525.17 80.6897 1531.79 83.33 1537.03 88.135C1542.28 92.9401 1545.81 99.6039 1547 106.961C1543.73 111.084 1540.94 115.635 1538.7 120.51C1539.55 117.968 1539.98 115.282 1539.97 112.577C1539.99 108.894 1539.21 105.26 1537.71 101.964C1536.2 98.6679 1534.02 95.8012 1531.32 93.5931C1528.62 91.385 1525.48 89.8966 1522.16 89.247C1518.84 88.5973 1515.43 88.8044 1512.19 89.8517V81.4165C1514.21 80.9333 1516.26 80.685 1518.32 80.6758Z" fill="#525282"/>
<path d="M1538.7 120.395C1538.27 121.766 1537.71 123.087 1537.04 124.337C1537.57 122.999 1538.11 121.589 1538.7 120.395Z" fill="#525282"/>
<path d="M1591.38 11.4024C1599.33 11.4046 1607.2 9.64824 1614.51 6.23951C1621.83 2.8308 1628.43 -2.15964 1633.93 -8.43103C1633.37 -11.6289 1632.59 -14.7761 1631.59 -17.846C1625.01 -8.8666 1616.07 -2.30414 1605.97 0.957634C1595.87 4.21941 1585.09 4.02377 1575.09 0.396996C1565.1 -3.22978 1556.36 -10.1134 1550.06 -19.3267C1543.75 -28.5401 1540.19 -39.6405 1539.84 -51.1328C1537.35 -49.4321 1534.98 -47.5311 1532.75 -45.4456C1534.47 -29.7862 1541.38 -15.3557 1552.18 -4.88139C1562.99 5.59295 1576.93 11.3857 1591.38 11.4024Z" fill="#525282"/>
<path d="M1518.15 48.012C1529.85 48.0034 1541.28 44.2069 1551 37.1033C1560.71 29.9996 1568.28 19.908 1572.75 8.10608C1570.37 7.2528 1568.05 6.22278 1565.81 5.02344C1561.91 15.3198 1555.3 24.1228 1546.81 30.3199C1538.33 36.5169 1528.36 39.8297 1518.15 39.8395C1516.06 39.8406 1513.98 39.697 1511.91 39.4094V47.6535C1513.98 47.8933 1516.07 48.013 1518.15 48.012Z" fill="#525282"/>
<path d="M1518.15 31.6634C1527.03 31.6533 1535.7 28.7199 1543.03 23.2462C1550.36 17.7726 1556.01 10.0132 1559.24 0.981387C1557.05 -0.580301 1554.96 -2.29655 1552.98 -4.15625C1550.28 5.00905 1544.64 12.7995 1537.09 17.7761C1529.54 22.7526 1520.6 24.579 1511.91 22.9176V31.1855C1513.98 31.5025 1516.06 31.6622 1518.15 31.6634Z" fill="#525282"/>
<path d="M1518.15 15.3436C1524.98 15.3291 1531.58 12.7032 1536.82 7.92254C1542.05 3.14186 1545.59 -3.49093 1546.81 -10.8221C1543.54 -14.9459 1540.76 -19.4973 1538.53 -24.3711C1539.37 -21.8341 1539.8 -19.1582 1539.8 -16.4616C1539.8 -12.7758 1539.01 -9.14108 1537.49 -5.84797C1535.98 -2.55487 1533.78 0.305319 1531.07 2.50415C1528.36 4.70298 1525.21 6.17945 1521.89 6.81556C1518.56 7.45166 1515.14 7.22984 1511.91 6.1677V14.6028C1513.96 15.0929 1516.05 15.3413 1518.15 15.3436Z" fill="#525282"/>
<path d="M1685.44 54.0311C1693.4 54.0333 1701.27 52.2771 1708.58 48.8684C1715.89 45.4597 1722.5 40.4691 1728 34.1977C1727.44 30.9999 1726.65 27.8527 1725.66 24.7828C1719.07 33.7491 1710.13 40.2994 1700.03 43.5531C1689.93 46.8068 1679.16 46.608 1669.17 42.9832C1659.18 39.3583 1650.45 32.4814 1644.14 23.2769C1637.84 14.0725 1634.27 2.98181 1633.91 -8.50391C1631.42 -6.80321 1629.05 -4.90221 1626.82 -2.81671C1628.54 12.8427 1635.45 27.273 1646.25 37.7474C1657.05 48.2217 1670.99 54.0145 1685.44 54.0311Z" fill="#525282"/>
<path d="M1685.44 37.7149C1692.72 37.7176 1699.88 35.755 1706.29 32.0025C1712.7 28.25 1718.16 22.8241 1722.18 16.2088C1720.89 13.5114 1719.42 10.9163 1717.8 8.44267C1713.96 16.3013 1707.82 22.5325 1700.36 26.1463C1692.9 29.76 1684.55 30.5489 1676.63 28.3877C1668.71 26.2265 1661.68 21.2392 1656.66 14.2181C1651.64 7.197 1648.91 -1.45503 1648.91 -10.3632C1648.91 -12.2017 1649.03 -14.0378 1649.26 -15.8594C1646.61 -15.03 1644.01 -14.0081 1641.49 -12.8007C1641.49 -11.9882 1641.49 -11.1917 1641.49 -10.4111C1641.5 2.32213 1646.14 14.5305 1654.37 23.5477C1662.61 32.5649 1673.78 37.6581 1685.44 37.7149Z" fill="#525282"/>
<path d="M1685.44 21.3675C1691.24 21.365 1696.91 19.4742 1701.72 15.9367C1706.52 12.3992 1710.26 7.37609 1712.43 1.51016C1710.55 -0.643234 1708.52 -2.64757 1706.37 -4.48769C1705.65 -1.38467 1704.36 1.52612 1702.58 4.0676C1700.79 6.60908 1698.56 8.72818 1696 10.2962C1693.44 11.8642 1690.62 12.8483 1687.7 13.1886C1684.79 13.529 1681.84 13.2186 1679.04 12.2762C1676.23 11.3338 1673.64 9.77911 1671.4 7.70665C1669.17 5.63419 1667.34 3.08716 1666.04 0.220572C1664.73 -2.64602 1663.97 -5.77234 1663.81 -8.96843C1663.65 -12.1645 1664.08 -15.3636 1665.08 -18.3711C1662.42 -18.3508 1659.76 -18.1352 1657.12 -17.7259C1656.58 -15.3319 1656.32 -12.8769 1656.33 -10.4138C1656.34 -1.98874 1659.41 6.08763 1664.87 12.045C1670.33 18.0025 1677.72 21.3549 1685.44 21.3675Z" fill="#525282"/>
<path d="M1612.22 90.6368C1623.91 90.6282 1635.34 86.8318 1645.06 79.7281C1654.78 72.6244 1662.35 62.5329 1666.81 50.7309C1664.44 49.8731 1662.12 48.8433 1659.87 47.6484C1655.97 57.9429 1649.36 66.7442 1640.88 72.9408C1632.4 79.1374 1622.42 82.4516 1612.22 82.4645C1610.13 82.4537 1608.05 82.3101 1605.98 82.0344V90.2785C1608.04 90.5174 1610.11 90.6368 1612.22 90.6368Z" fill="#525282"/>
<path d="M1612.22 74.2964C1621.1 74.2896 1629.77 71.3574 1637.1 65.8833C1644.43 60.4092 1650.08 52.6479 1653.31 43.6142C1651.12 42.0525 1649.03 40.3363 1647.05 38.4766C1644.32 47.619 1638.67 55.3851 1631.13 60.3559C1623.59 65.3268 1614.66 67.1705 1605.98 65.5504V73.7945C1608.04 74.1195 1610.13 74.2873 1612.22 74.2964Z" fill="#525282"/>
<path d="M1612.22 57.9744C1619.06 57.9558 1625.68 55.3138 1630.92 50.5096C1636.16 45.7054 1639.69 39.0442 1640.89 31.6891C1637.61 27.5845 1634.82 23.0394 1632.6 18.1641C1633.43 20.7011 1633.86 23.3771 1633.87 26.0737C1633.87 29.7595 1633.08 33.3941 1631.56 36.6872C1630.04 39.9803 1627.84 42.8405 1625.13 45.0393C1622.42 47.2381 1619.28 48.7146 1615.95 49.3507C1612.63 49.9868 1609.21 49.765 1605.98 48.7029V57.1381C1608.02 57.6604 1610.12 57.9407 1612.22 57.9744Z" fill="#525282"/>
<path d="M1632.6 18.2593C1632.16 16.8901 1631.6 15.5697 1630.93 14.3164C1631.44 15.6546 1632.01 16.9689 1632.6 18.2593Z" fill="#525282"/>
</svg>
