<svg width="14" height="13" viewBox="0 0 14 13" fill="none" xmlns="http://www.w3.org/2000/svg">
<path d="M2.02795 4.09313H2.20389C2.88125 4.09313 3.43545 4.64733 3.43545 5.32469V11.4825C3.43545 12.1599 2.88125 12.7141 2.20389 12.7141H2.02795C1.35059 12.7141 0.796387 12.1599 0.796387 11.4825V5.32469C0.796387 4.64733 1.35059 4.09313 2.02795 4.09313ZM6.9542 0.398438C7.63156 0.398438 8.18576 0.952641 8.18576 1.63V11.4825C8.18576 12.1599 7.63156 12.7141 6.9542 12.7141C6.27684 12.7141 5.72264 12.1599 5.72264 11.4825V1.63C5.72264 0.952641 6.27684 0.398438 6.9542 0.398438ZM11.8805 7.43594C12.5578 7.43594 13.112 7.99014 13.112 8.6675V11.4825C13.112 12.1599 12.5578 12.7141 11.8805 12.7141C11.2031 12.7141 10.6489 12.1599 10.6489 11.4825V8.6675C10.6489 7.99014 11.2031 7.43594 11.8805 7.43594Z" fill="#FEFEFE"/>
</svg>
