<svg width="21" height="18" viewBox="0 0 21 18" fill="none" xmlns="http://www.w3.org/2000/svg">
<path d="M16.5558 6.26984V10.8643C16.5558 11.8687 16.5558 12.3709 16.3637 12.8054C16.3005 12.9483 16.2227 13.0843 16.1313 13.211C15.8536 13.5965 15.4203 13.8505 14.5538 14.3584L12.4459 15.5939C11.5605 16.1129 11.1178 16.3723 10.6361 16.4236C10.4778 16.4405 10.3181 16.4405 10.1598 16.4236C9.67812 16.3723 9.2354 16.1129 8.34997 15.5939L6.24207 14.3584C5.37559 13.8505 4.94235 13.5965 4.66457 13.211C4.57324 13.0843 4.49535 12.9483 4.43218 12.8054C4.24005 12.3709 4.24005 11.8687 4.24005 10.8643V6.26983M19.398 5.00856L11.9725 1.87531C11.2833 1.58452 10.9387 1.43913 10.5774 1.41021C10.458 1.40065 10.3379 1.40065 10.2185 1.41021C9.85717 1.43913 9.51259 1.58452 8.82345 1.87531L1.39795 5.00856L8.75514 8.27355C9.47312 8.59218 9.83211 8.75149 10.2102 8.78315C10.3352 8.79361 10.4608 8.79361 10.5857 8.78315C10.9638 8.75149 11.3228 8.59218 12.0408 8.27355L19.398 5.00856ZM19.398 5.00856V12.6013C19.398 13.5268 19.398 13.9896 19.2312 14.3982C19.1763 14.5328 19.1084 14.6618 19.0286 14.7833C18.7863 15.1523 18.405 15.4144 17.6424 15.9387L17.148 16.2786" stroke="#FEFEFE" stroke-width="2" stroke-linecap="round" stroke-linejoin="round"/>
</svg>
